<svg width="416" height="470" viewBox="0 0 416 470" fill="none" xmlns="http://www.w3.org/2000/svg">
<path d="M10.0213 246.277V9.86084H406.095V246.277C406.095 246.277 403.025 269.304 398.419 276.98C393.814 284.656 389.208 298.472 375.392 315.36C361.575 332.247 347.759 350.669 326.266 370.626C304.774 390.584 276.355 415.189 252.578 432.033C215.734 458.131 207.187 459.93 207.187 459.93C207.187 459.93 183.495 448.429 154.327 426.414C125.159 404.4 83.7095 366.021 83.7095 366.021C83.7095 366.021 53.0061 335.318 29.9786 301.543C6.951 267.769 10.0213 246.277 10.0213 246.277Z" fill="#3FA9F5"/>
<path d="M10.0213 246.277V243.87H406.095V246.277C406.095 246.277 403.025 269.304 398.419 276.98C393.814 284.656 389.208 298.472 375.392 315.36C361.575 332.247 347.759 350.669 326.266 370.626C304.774 390.584 276.355 415.189 252.578 432.033C215.734 458.131 207.187 459.93 207.187 459.93C207.187 459.93 183.495 448.429 154.327 426.414C125.159 404.4 83.7095 366.021 83.7095 366.021C83.7095 366.021 53.0061 335.318 29.9786 301.543C6.951 267.769 10.0213 246.277 10.0213 246.277Z" fill="white"/>
<path d="M102.306 378.689L100.431 381.136L107.19 387.028L116.29 395.088L130.142 406.955L132.213 405.014L134.311 403.359L137.292 401.978L141.101 400.71H147.118L149.271 401.483L152.032 402.641L155.178 405.014L169.494 418.751L176.493 423.651L182.868 427.154L189.58 429.503L195.321 431.032L200.653 431.705H212.024L220.04 430.473L225.446 428.908L232.829 426.074L240.509 421.861L250.538 414.815L258.666 408.066L263.96 404.265L269.404 401.692L273.244 400.869L278.389 400.608L281.26 401.17L285.473 403.034L287.635 404.71L291.364 401.579L302.735 391.812L307.62 387.486L312.616 383.123L317.694 378.517L314.369 375.444L310.255 372.057L301.784 366.491L293.07 362.739L286.051 361.287L277.216 360.559L267.656 361.287L262.089 362.739L254.586 364.553L248.414 367.458L243.21 370.362L235.585 375.444L227.936 381.72L219.49 388.124L213.583 390.719L209.334 392.518H202.855L200.204 391.339L195.05 387.952L189.454 382.503L180.177 373.66L170.311 366.896L159.922 363.04L151.075 361.268L144.157 360.897L134.758 361.713L127.32 363.184L119.882 365.963L113.833 369.478L108.035 373.66L102.306 378.689Z" fill="#0D0D86"/>
<path d="M27.5472 289.349H22.5587L24.3845 292.701L28.0861 298.46L35.2955 309.014L50.8041 329.367L64.4035 345.219L71.6547 353.288L77.3693 359.318L86.8925 358.956L92.6549 357.378L101.329 353.678L106.667 350.282L113.218 345.004L120.739 337.967L127.594 331.903L134.084 328.689H139.119L141.848 329.355L144.942 330.629L150.158 334.51L154.465 338.818L162.472 346.217L167.385 350.402L174.693 354.553L181.705 357.356L194.082 359.942L205.38 359.57L214.403 358.096L223.481 355.143L234.331 349.46L240.974 345.032L247.986 339.198L253.005 335.213L258.024 332.189L263.043 329.751L266.881 328.867H272.638L276.919 329.751L278.469 330.786L282.971 334.55L287.547 339.198L296.552 347.467L303.416 352.115L311.24 356.101L319.803 358.465L328.584 359.644H337.516L340.912 356.101L351.836 344.071L360.249 334.108L373.387 317.943L381.063 307.906L385.641 300.598L389.552 294.256L392.097 289.173H386.089L380.427 290.074L374.059 291.554L367.047 294.256L360.679 297.472L354.311 302.168L348.843 307.445L343.823 312.975L339.515 317.801L335.91 319.858H329.22L325.167 318.83L318.799 314.006L312.431 307.381L301.815 298.501L293.131 293.548L285.283 290.718L277.224 289.239H262.367L257.613 290.031L253.769 290.912L247.988 292.467L242.882 294.961L235.81 298.952L226.596 305.201L221.813 309.134L216.589 313.448L210.779 316.969L205.38 319.318L202.24 320.11H197.105L194.082 319.318L190.972 317.967L186.306 314.123L179.792 307.491L172.69 301.035L168.993 298.218L163.007 294.726L157.549 292.408L152.883 290.853L147.043 289.327L137.536 288.799L129.781 289.248L125.099 290.096L121.739 290.775L116.955 292.437L109.864 295.627L105.011 298.782L100.566 301.938L97.3089 305.026L88.521 313.779L82.2775 318.701L77.9683 319.99H70.0962L66.5675 316.46L61.6476 309.742L56.7615 304.245L53.0292 300.479L49.1608 297.391L43.4605 294.1L35.2492 290.843L27.5472 289.349Z" fill="#0D0D86"/>
<path d="M212.294 81.594H207.135V86.8231L209.33 88.5621L211.956 89.3779H214.919L216.218 87.4804L218.697 85.1921L220.76 84.0527L224.536 81.9201L227.164 80.6944L229.407 79.0275L231.458 77.6001L236.999 71.0876L240.021 67.6335L244.567 62.4164L249.892 56.2039L252.482 53.5413L250.427 53.6926L248.675 54.4977L245.406 56.0135L243.179 57.6718L237.59 64.3983L229.632 73.3514L225.368 77.4727L222.005 78.9885L212.294 81.594Z" fill="#453629"/>
<path d="M230.009 75.0026L229.134 73.8497L230.385 72.496L233.194 69.4072L236.544 65.6043L239.302 62.3206L243.163 57.6669L245.442 55.988L250.443 53.6853L252.566 53.5173L249.676 56.1799L247.133 59.3461L241.878 65.4094L238.776 68.9065L235.747 72.496L234.309 73.2599L231.947 74.7693L230.009 75.0026Z" fill="#5B4C3C"/>
<path d="M150.216 58.5177L158.19 62.2485L174.944 76.6287L160.666 71.2179L155.751 69.3244L146.984 65.4211L141.406 62.7975L137.354 61.3578L134.251 60.5261L131.139 59.8782L128.769 59.3701L131.812 57.9046L131.632 57.3958L130.766 56.6777L128.745 56.425L130.235 55.0308L135.815 55.1855L141.406 55.9006L147.257 57.3958L150.216 58.5177Z" fill="#38312D"/>
<path d="M130.146 54.6052L132.847 55.1002H130.282L128.897 56.4173L122.955 56.0492L119.774 55.8914L119.564 55.1002L119.932 53.9193L120.721 52.4732L111.773 44.4077L130.146 54.6052Z" fill="#303848"/>
<path d="M158.106 67.0303V70.2068L174.884 76.5925L168.163 70.863L165.071 68.6797L161.738 67.0303H158.106Z" fill="#5B473E"/>
<path d="M213.869 156.451L215.254 155.762L214.199 150.844L213.132 151.046L212.354 151.522L211.51 152.213L211.177 153.687L210.457 155.846L208.929 158.958L208.067 160.68L207.318 162.193L206.283 164.442H205.925L205.433 162.645L205.088 161.98L204.141 162.46L203.487 162.966L202.749 163.9L201.612 165.801L200.979 167.034L201.453 168.531H202.325L202.967 167.48L204.987 167.802L206.283 167.347L207.913 166.881L208.929 165.801L209.901 163.9L211.972 159.195L213.869 156.451Z" fill="#46362B"/>
<path d="M200.19 165.504L201.401 166.307L202.768 163.932L203.483 163.027L204.125 162.604L205.103 162.137L205.438 162.837L205.92 164.53H206.27L208.211 160.4L210.546 155.832L211.224 153.606L209.155 153.738L207.3 154.506L205.796 155.306L204.164 155.972H201.773L200.866 156.815L200.19 157.247L200.033 164.655L200.19 165.504Z" fill="#B88137"/>
<path d="M189.112 152.875L188.183 153.653L188.816 153.954L190.987 154.122L192.822 153.882L193.926 152.767L194.168 151.168L191.294 152.292L189.112 152.875Z" fill="white"/>
<path d="M169.603 97.4466L168.964 99.6542L171.406 99.5056L171.557 98.7162L172.13 97.9299L173.751 96.6981L175.22 95.5528H175.976L176.992 95.769L177.165 96.2013V99.5056L178.771 100.294L179.522 100.422H180.45L182.209 99.1832H197.952L200.242 101.041L203.303 96.0966V92.5448L198.775 86.4361L196.289 83.5061L193.998 82.4229L191.459 82.7072L188.919 83.7904L184.565 85.1889L182.054 86.7213L180.034 87.3366L175.523 90.1521L173.187 92.3597L171.684 94.3112L169.603 97.4466Z" fill="white"/>
<path d="M177.467 103.872L174.728 104.322L176.072 103.17L178.482 101.455L179.514 100.412H180.437L182.2 99.2004H197.984L200.215 101.011L199.399 102.295L193.894 102.355L193.222 103.446L189.87 102.576H185.786L183.128 102.965L181.119 103.548L177.467 103.872Z" fill="#707267"/>
<path d="M171.55 98.6967L171.406 99.5241H177.199V96.19L177.019 95.7224L175.988 95.5066H175.232L173.565 96.7538L172.15 97.8572L171.55 98.6967Z" fill="#0F0C0D"/>
<path d="M167.616 101.131L168.984 99.6324L171.394 99.5003H173.932L176.844 99.364L177.259 99.4282L178.878 100.316L179.55 100.412L178.436 101.507L177.957 101.861L177.124 102.441L176.051 103.211L174.74 104.31L173.397 104.634L171.562 105.089L170.003 106.66L169.187 107.452L168.624 108.256L168.492 109.515L166.837 109.155L165.973 108.256L165.242 107.272V104.298L166.021 102.703L167.616 101.131Z" fill="#CCA44B"/>
<path d="M160.576 71.1717L181.985 86.8031L184.141 85.3106L188.576 83.9428L191.519 82.6581L193.883 82.4094L196.244 83.4454L198.482 86.0981L203.331 92.6057V96.1286L199.394 102.313H193.883L193.18 103.402L202.555 116.874V126.857L200.783 132.939L198.617 139.224L195.663 146.551L194.245 150.686L193.914 152.697L192.787 153.889L190.975 154.074L188.763 153.889L188.021 153.522L185.132 154.074L183.298 154.306L182.138 154.905L179.93 157.793L178.732 158.985L178.507 160.033L178.732 161.942L179.668 163.813H181.09L182.362 162.952L183.485 161.561L185.132 159.584L186.517 158.161L187.527 157.487H188.388L188.763 157.793L189.249 158.985L190.478 162.226L191.198 164.554L192.418 165.052L193.914 164.554L194.579 163.612V161.561L193.914 159.377L193.249 157.793V155.849L194.967 154.634L197.629 153.889L199.266 152.697L202.368 149.062L203.379 145.077L203.716 139.547L204.188 136.445L205.739 132.939L207.376 128.84L211.702 129.478L213.706 131.299V135.671L212.932 137.721V142.913L214.571 145.873V149.062L214.198 150.926L215.265 155.849L221.666 159.377H228.312L231.922 156.587L235.003 150.271L242.4 124.081L246.483 124.338L247.766 117.282L242.4 114.191L239.135 108.942V104.393L249.807 106.901L246.828 100.406L255.636 102.219L269.886 106.536L279.539 106.968L283.181 105.5L286.289 102.996L291.384 97.0381L295.96 94.0159L299.377 89.9305L305.677 84.4488L311.682 81.4745L320.31 78.617L327.369 78.0919L320.31 72.6101L327.719 74.243L339.791 77.1589L339.325 74.243L344.75 75.5844L339.791 72.0271L328.652 67.6801L342.65 69.6943L333.961 65.4953L331.569 64.0375L328.302 63.0172L319.533 62.4126L315.302 61.981L309.432 60.8584L307.617 63.0172H315.302L318.584 64.3988L320.31 66.2985L313.905 66.1164L310.076 67.4845L303.357 69.9169L298.25 71.6752H292.361L289.158 70.0083L286.34 66.2542L284.205 61.9727L283.258 58.2665L281.135 56.1197L279.624 54.5606L278.292 53.7331L276.541 53.805L275.244 54.2382L273.663 54.8725H271.372L269.921 54.1528L268.73 52.0315L266.944 49.7202L264.737 48.3545H261.165L258.223 49.7202L252.655 53.3978L249.713 56.1292L246.245 60.4372L237.42 70.5235L231.431 77.5632L227.172 80.5767L225.127 81.5559L221.975 83.2369L218.612 85.1282L216.196 87.4396L214.83 89.3309H211.888L209.261 88.4905L207.16 86.8031V81.5559L158.118 62.2333L174.845 76.5712L160.576 71.1717Z" fill="#0F0C0D"/>
<path d="M306.177 52.7192L302.6 54.7291L305.105 55.6419L308.065 55.8977H335.066L339.113 55.1037L339.794 53.6667L337.148 53.3075L325.09 53.1976L306.177 52.7192Z" fill="#0F0C0D"/>
<path d="M257.059 121.527L247.756 117.311L246.45 124.327L242.336 124.051L236.807 143.888L245.222 145.556L258.338 148.764H269.839L275.484 146.269H288.044L290.571 144.765L290.827 141.79L292.267 140.958L293.109 139.87L292.651 137.951L289.739 135.455L292.267 134.527L293.109 133.345L289.131 129.541L284.981 127.754L280.139 127.063L272.069 126.544L267.386 125.98L257.059 121.527Z" fill="#6F726D"/>
<path d="M246.07 126.265L246.354 124.37L247.802 117.334L261.37 123.391V124.038L260.565 124.37L260.328 124.891H258.764L254.691 122.854H253.222L253.601 124.891L255.543 128.254V129.344L254.359 130.812L254.028 132.139H247.964L245.169 131.854L243.417 130.812L246.07 126.265Z" fill="#5D6970" fill-opacity="0.8"/>
<path d="M322.573 47.9609L268.888 52.3386L269.909 54.2367L271.3 54.9444H273.675L276.541 53.8409H278.304L279.576 54.5726L283.186 58.3267L284.133 61.9847L286.316 66.3262L289.138 70.0554L292.34 71.7474H298.262L313.997 66.3022L320.402 66.3903L318.603 64.3473L315.305 62.9562H307.675L309.462 60.8812L316.168 62.1407L321.894 62.6006L328.096 63.0329L329.048 63.2976L334.946 63.7253L338.787 62.9325H342.014L339.77 61.9506L336.893 60.6881L332.686 59.7765L323.847 58.4437L312.579 56.8192L308.455 56.4876L302.725 54.7347L306.558 52.6312L322.573 47.9609Z" fill="#2E2B29"/>
<path d="M17.6821 205.917L10.0438 207.496L9.98419 247.058L13.0464 247.206L15.5366 247.942L20.0078 249.81L25.0449 253.206L29.9688 258.13L38.4017 267.921L45.5894 275.844L50.1737 279.75L55.6638 283.032L62.1723 285.126H71.6805L77.0573 284.164L83.0564 282.07L91.3761 277.203L99.2432 270.298L107.619 261.978L111.694 258.243L115.6 255.074L121.203 251.168L127.994 247.886L135.408 246.414H145.143L150.067 247.886L153.18 249.018L158.953 252.47L163.763 256.488L172.423 266.902L178.195 273.467L183.629 278.505L187.704 280.938L194.382 284.108L199.193 285.239H205.984L211.644 284.108L217.587 282.41L226.246 276.976L235.018 269.449L241.527 262.997L249.168 256.092L254.714 252.13L259.072 249.64L264.958 247.246L271.297 246.359H279.093L284.043 247.246L289.658 249.341L293.68 252.023L298.037 255.71L307.507 266.52L313.96 273.978L321.167 280.179L326.696 283.196L333.568 285.291H341.529L347.814 284.453L355.775 281.352L363.988 275.402L370.273 269.536L380.412 259.983L386.193 255.207L391.557 251.52L399.432 247.749L406.024 245.905V140.548L387.664 154.099L376.847 161.53L360.891 172.786L349.306 180.983L325.919 197.266L309.309 208.741L298.599 215.844L295.321 217.252L291.702 214.853L265.61 201.877L254.108 197.528L239.238 193.11H231.593L228.227 193.882L220.862 196.687L211.393 202.018L200.138 209.949L191.587 216.719L189.298 219.706L178.386 211.036L166.475 201.637L156.421 193.441L146.476 185.9L135.438 177.923L120.794 168.743L110.849 164.262L105.494 162.405L97.5165 160.656H90.5222L84.621 162.405L79.8126 164.809L73.8018 168.743L66.5893 174.317L59.1578 180.874L50.8523 187.759L38.9403 196.501L25.3859 203.491L17.6821 205.917Z" fill="#57744B"/>
<path fill-rule="evenodd" clip-rule="evenodd" d="M6.36395 204.494L6.29456 250.568L12.4265 250.865L14.3011 251.419L18.251 253.069L22.6909 256.063L27.2666 260.638L35.641 270.362L43.0199 278.496L48.019 282.754L54.1345 286.411L61.5942 288.811H72.0076L77.9947 287.739L84.6082 285.431L93.5414 280.205L101.759 272.992L110.163 264.645L114.103 261.034L117.817 258.02L123.069 254.358L129.174 251.408L135.77 250.099H144.604L148.909 251.385L151.59 252.36L156.813 255.484L161.144 259.102L169.622 269.297L175.553 276.042L181.408 281.47L185.965 284.192L193.157 287.604L198.765 288.924H206.349L212.513 287.691L219.102 285.809L228.437 279.952L237.518 272.159L244.06 265.674L251.481 258.968L256.704 255.237L260.687 252.961L265.922 250.832L271.553 250.044H278.766L283.066 250.814L287.97 252.644L291.461 254.972L295.448 258.345L304.72 268.931L304.735 268.948L311.351 276.594L319.06 283.227L325.262 286.611L333.018 288.975H341.775L348.738 288.047L357.553 284.614L366.334 278.252L372.785 272.23L382.85 262.748L388.416 258.151L393.409 254.719L400.734 251.211L409.709 248.701V133.249L385.527 151.097L374.741 158.507L347.2 177.959L347.178 177.975L323.826 194.235L323.813 194.243L307.243 205.69L296.839 212.59L295.697 213.081L293.547 211.656L267.086 198.496L255.285 194.035L239.774 189.425H231.176L227.154 190.348L219.294 193.342L209.423 198.899L197.932 206.996L188.941 214.115L188.654 214.489L180.679 208.151L168.78 198.763L158.698 190.545L148.668 182.939L137.498 174.866L122.537 165.488L112.212 160.836L106.496 158.853L97.9157 156.972H89.9881L83.2634 158.964L77.9735 161.609L71.6634 165.74L64.2415 171.475L56.7628 178.074L48.5846 184.853L36.9941 193.36L23.9779 200.072L16.7536 202.347L6.36395 204.494ZM15.5367 247.942L13.0465 247.207L9.98427 247.058L10.0438 207.496L17.6822 205.917L25.3859 203.491L38.9404 196.502L50.8524 187.759L59.1579 180.874L66.5894 174.317L73.8019 168.744L79.8127 164.809L84.6211 162.405L90.5223 160.656H97.5166L105.494 162.405L110.849 164.263L120.794 168.744L135.438 177.923L146.476 185.901L156.421 193.441L166.475 201.637L178.386 211.036L189.274 219.687L189.265 219.699L197.295 226.306L207.606 233.741L217.635 239.633H221.563L228.367 238.44L248.075 234.162L264.418 229.533L276.902 225.394L286.582 221.747L295.317 217.25L295.321 217.252L298.599 215.845L309.309 208.741L325.919 197.266L349.306 180.983L360.891 172.787L376.847 161.53L387.664 154.099L406.025 140.548V245.906L399.433 247.749L391.557 251.52L386.193 255.207L380.412 259.984L370.274 269.537L363.989 275.403L355.775 281.352L347.814 284.453L341.529 285.291H333.568L326.696 283.196L321.167 280.179L313.961 273.978L307.507 266.52L298.037 255.71L293.68 252.023L289.658 249.341L284.043 247.246L279.093 246.36H271.297L264.958 247.246L259.072 249.641L254.714 252.131L249.168 256.093L241.527 262.997L235.018 269.449L226.246 276.977L217.587 282.41L211.644 284.108L205.984 285.24H199.193L194.382 284.108L187.704 280.938L183.629 278.505L178.195 273.468L172.423 266.902L163.763 256.489L158.953 252.47L153.18 249.018L150.067 247.886L145.143 246.415H135.408L127.994 247.886L121.203 251.169L115.6 255.074L111.694 258.243L107.619 261.978L99.2433 270.298L91.3762 277.203L83.0565 282.07L77.0574 284.164L71.6806 285.127H62.1724L55.6639 283.032L50.1738 279.75L45.5895 275.845L38.4018 267.921L29.9688 258.13L25.045 253.206L20.0079 249.81L15.5367 247.942ZM292.094 215.113L291.702 214.853L265.61 201.877L254.108 197.529L239.238 193.11H231.593L228.227 193.882L220.862 196.687L211.393 202.018L200.138 209.949L191.587 216.719L191.155 217.283L197.295 222.368L207.606 229.802L217.635 235.694H221.563L228.367 234.502L248.075 230.223L264.418 225.594L276.902 221.456L286.582 217.809L292.094 215.113Z" fill="#24420E"/>
<path fill-rule="evenodd" clip-rule="evenodd" d="M21.2331 304.743C21.1877 304.676 21.1423 304.611 21.0969 304.544C-3.08082 269.281 0.142878 246.841 0.142878 246.841V0H416V246.841C416 246.841 412.776 270.884 407.94 278.898C406.583 281.148 405.226 283.904 403.654 287.094C400.691 293.106 396.967 300.662 391.054 309.287C388.545 313.113 385.665 317.114 382.352 321.16C380.185 323.81 377.998 326.521 375.766 329.294C364.013 343.872 350.952 360.077 332.416 377.286C310.832 397.332 282.1 422.23 257.862 439.396C239.294 452.549 227.651 459.728 220.507 463.661C217.079 465.546 214.624 466.722 212.885 467.462C208.614 469.611 207.157 469.915 207.157 469.915C207.157 469.915 206.794 469.74 206.103 469.393L206.008 469.411L203.172 468.036L203.232 467.91C203.171 468.036 203.172 468.036 203.172 468.036L203.166 468.033L203.159 468.03L203.137 468.018L203.068 467.984L202.828 467.867C202.624 467.766 202.331 467.618 201.954 467.428C201.2 467.044 200.11 466.482 198.719 465.746C195.939 464.269 191.953 462.079 187.049 459.196C177.248 453.43 163.743 444.867 148.84 433.621C133.979 422.405 116.128 407.13 102.1 394.765C95.0618 388.56 88.9407 383.052 84.5781 379.088C82.396 377.108 80.6527 375.514 79.4528 374.412C78.8528 373.863 78.3883 373.436 78.073 373.144L77.5894 372.696C77.5894 372.696 77.5872 372.696 77.9686 372.284L77.5894 372.696L77.4567 372.573L77.3315 372.45L77.7229 372.057C77.3312 372.45 77.3315 372.45 77.3315 372.45L77.3002 372.416L77.2246 372.343L76.9446 372.06C76.7018 371.815 76.348 371.455 75.8927 370.989C74.9824 370.055 73.6652 368.695 72.017 366.964C68.7219 363.497 64.0962 358.529 58.7427 352.496C48.0656 340.46 34.3667 324.034 22.5591 306.714C22.1079 306.054 21.666 305.394 21.2331 304.743ZM28.8697 299.591C40.6127 316.681 54.3515 333.085 65.2445 345.296C70.7032 351.415 75.4153 356.445 78.7546 359.939C80.4239 361.686 81.7485 363.046 82.6502 363.964C83.1013 364.421 83.4461 364.771 83.6754 365.002L83.8876 365.214L84.2327 365.53L84.9742 366.208L85.6506 366.825C86.8894 367.958 88.6969 369.601 90.9628 371.646C95.4959 375.742 101.858 381.437 109.171 387.845C123.845 400.707 142.166 416.279 157.186 427.554C172.164 438.797 185.736 447.354 195.541 453.087C200.44 455.951 204.39 458.107 207.094 459.534L207.397 459.694C207.653 459.62 208.168 459.448 209.019 459.095C209.881 458.659 210.889 458.128 212.056 457.489C218.727 453.836 230.335 446.765 249.511 433.255C273.99 416.015 303.486 390.636 325.935 369.905C344.335 352.914 357.145 337.123 369.475 321.919C371.873 318.965 374.253 316.033 376.651 313.116C379.306 309.889 381.575 306.856 383.55 303.985C388.385 296.596 391.569 290.095 394.148 284.831C395.644 281.778 396.936 279.142 398.229 276.989C402.828 269.321 405.896 246.317 405.896 246.317V10.1465H10.233V246.317C10.233 246.317 7.28277 266.969 28.8697 299.591Z" fill="#176DFF"/>
</svg>
