<svg width="97" height="32" viewBox="0 0 97 32" fill="none" xmlns="http://www.w3.org/2000/svg">
<path d="M0.639547 16.723V1.62988H25.9254V16.723C25.9254 16.723 25.7294 18.1931 25.4354 18.6831C25.1414 19.1732 24.8473 20.0552 23.9653 21.1334C23.0832 22.2115 22.2011 23.3875 20.8291 24.6616C19.4569 25.9357 17.6426 27.5066 16.1247 28.5819C13.7725 30.2481 13.2269 30.3629 13.2269 30.3629C13.2269 30.3629 11.7143 29.6286 9.85223 28.2232C7.99011 26.8178 5.3439 24.3676 5.3439 24.3676C5.3439 24.3676 3.38375 22.4075 1.91365 20.2512C0.443532 18.0951 0.639547 16.723 0.639547 16.723Z" fill="#3FA9F5"/>
<path d="M0.639547 16.723V16.5693H25.9254V16.723C25.9254 16.723 25.7294 18.1931 25.4354 18.6831C25.1414 19.1731 24.8473 20.0552 23.9653 21.1334C23.0832 22.2114 22.2011 23.3875 20.8291 24.6616C19.4569 25.9357 17.6426 27.5066 16.1247 28.5819C13.7725 30.248 13.2269 30.3629 13.2269 30.3629C13.2269 30.3629 11.7143 29.6286 9.85223 28.2232C7.99011 26.8178 5.3439 24.3676 5.3439 24.3676C5.3439 24.3676 3.38375 22.4074 1.91365 20.2512C0.443532 18.0951 0.639547 16.723 0.639547 16.723Z" fill="white"/>
<path d="M6.5318 25.176L6.41211 25.3322L6.84362 25.7084L7.42458 26.2229L8.3089 26.9805L8.44115 26.8566L8.57507 26.751L8.76538 26.6628L9.00855 26.5818H9.3927L9.53015 26.6312L9.70637 26.7051L9.90724 26.8566L10.8212 27.7336L11.268 28.0465L11.675 28.2701L12.1035 28.4201L12.47 28.5177L12.8104 28.5606H13.5364L14.0481 28.482L14.3933 28.382L14.8646 28.2011L15.3549 27.9322L15.9952 27.4823L16.5141 27.0515L16.852 26.8088L17.1996 26.6446L17.4447 26.592L17.7732 26.5754L17.9565 26.6112L18.2254 26.7302L18.3635 26.8372L18.6015 26.6373L19.3275 26.0138L19.6394 25.7376L19.9583 25.4591L20.2825 25.165L20.0702 24.9688L19.8075 24.7526L19.2667 24.3973L18.7105 24.1577L18.2624 24.065L17.6983 24.0186L17.088 24.065L16.7326 24.1577L16.2536 24.2736L15.8595 24.459L15.5273 24.6444L15.0406 24.9688L14.5522 25.3695L14.013 25.7784L13.6359 25.944L13.3646 26.0589H12.951L12.7818 25.9836L12.4527 25.7674L12.0955 25.4195L11.5032 24.8549L10.8733 24.4231L10.2101 24.1769L9.64531 24.0638L9.20367 24.0401L8.60359 24.0923L8.12872 24.1861L7.65388 24.3635L7.26775 24.588L6.89754 24.8549L6.5318 25.176Z" fill="#0D0D86"/>
<path d="M1.75793 19.4727H1.43945L1.55602 19.6866L1.79233 20.0543L2.25259 20.7281L3.24268 22.0275L4.11089 23.0395L4.57381 23.5546L4.93863 23.9396L5.54661 23.9164L5.91449 23.8157L6.46825 23.5795L6.80902 23.3627L7.22726 23.0258L7.70744 22.5765L8.14502 22.1894L8.55937 21.9841H8.8808L9.05505 22.0267L9.25256 22.108L9.58559 22.3558L9.86053 22.6308L10.3717 23.1032L10.6854 23.3704L11.1519 23.6354L11.5996 23.8143L12.3897 23.9794L13.111 23.9557L13.687 23.8616L14.2666 23.673L14.9593 23.3102L15.3834 23.0275L15.831 22.6551L16.1514 22.4007L16.4719 22.2076L16.7923 22.052L17.0373 21.9955H17.4049L17.6782 22.052L17.7771 22.118L18.0645 22.3583L18.3567 22.6551L18.9315 23.183L19.3698 23.4797L19.8693 23.7342L20.4159 23.8851L20.9765 23.9604H21.5468L21.7635 23.7342L22.461 22.9662L22.998 22.3301L23.8368 21.2981L24.3268 20.6573L24.6191 20.1908L24.8688 19.7859L25.0313 19.4614H24.6477L24.2862 19.5189L23.8797 19.6134L23.432 19.7859L23.0255 19.9912L22.619 20.291L22.2698 20.6279L21.9494 20.9809L21.6744 21.2891L21.4442 21.4204H21.0171L20.7584 21.3547L20.3518 21.0468L19.9453 20.6238L19.2676 20.0569L18.7132 19.7407L18.2121 19.56L17.6976 19.4656H16.7491L16.4456 19.5162L16.2002 19.5724L15.8312 19.6717L15.5052 19.8309L15.0537 20.0857L14.4655 20.4846L14.1601 20.7357L13.8266 21.0111L13.4557 21.236L13.111 21.3859L12.9106 21.4365H12.5827L12.3897 21.3859L12.1912 21.2997L11.8933 21.0542L11.4774 20.6309L11.0241 20.2187L10.788 20.0389L10.4058 19.8159L10.0574 19.6679L9.75953 19.5686L9.38673 19.4712L8.77975 19.4375L8.28468 19.4662L7.98574 19.5203L7.77128 19.5637L7.46585 19.6698L7.01311 19.8734L6.70333 20.0749L6.41956 20.2763L6.21161 20.4735L5.65058 21.0323L5.25198 21.3465L4.97688 21.4288H4.47432L4.24904 21.2034L3.93494 20.7745L3.62301 20.4236L3.38473 20.1832L3.13777 19.9861L2.77385 19.7759L2.24963 19.568L1.75793 19.4727Z" fill="#0D0D86"/>
<path d="M13.553 6.20889H13.2236V6.54273L13.3637 6.65375L13.5314 6.70583H13.7206L13.8035 6.58469L13.9617 6.4386L14.0934 6.36586L14.3346 6.22971L14.5023 6.15146L14.6455 6.04504L14.7764 5.95392L15.1302 5.53815L15.3231 5.31764L15.6133 4.98457L15.9533 4.58795L16.1187 4.41797L15.9875 4.42763L15.8756 4.47903L15.6669 4.5758L15.5248 4.68167L15.1679 5.1111L14.6599 5.68267L14.3877 5.94578L14.173 6.04256L13.553 6.20889Z" fill="#453629"/>
<path d="M14.6838 5.78864L14.6279 5.71504L14.7078 5.62862L14.8872 5.43143L15.101 5.18864L15.2771 4.979L15.5236 4.68191L15.6691 4.57473L15.9884 4.42771L16.1239 4.41699L15.9394 4.58698L15.777 4.78911L15.4416 5.1762L15.2435 5.39946L15.0501 5.62862L14.9583 5.67738L14.8075 5.77375L14.6838 5.78864Z" fill="#5B4C3C"/>
<path d="M9.58946 4.73629L10.0985 4.97446L11.1681 5.89252L10.2566 5.54708L9.94279 5.4262L9.38313 5.177L9.02702 5.00951L8.76833 4.9176L8.57022 4.8645L8.37158 4.82314L8.22028 4.7907L8.41453 4.69714L8.40302 4.66466L8.34773 4.61881L8.21875 4.60268L8.31384 4.51367L8.67009 4.52355L9.02702 4.5692L9.40056 4.66466L9.58946 4.73629Z" fill="#38312D"/>
<path d="M8.30867 4.48598L8.48115 4.51758H8.31741L8.22899 4.60167L7.84965 4.57817L7.64654 4.56809L7.63311 4.51758L7.65661 4.44219L7.70697 4.34987L7.13574 3.83496L8.30867 4.48598Z" fill="#303848"/>
<path d="M10.0938 5.2793V5.48209L11.1649 5.88976L10.7358 5.52398L10.5384 5.3846L10.3256 5.2793H10.0938Z" fill="#5B473E"/>
<path d="M13.653 10.9878L13.7414 10.9438L13.6741 10.6299L13.6059 10.6427L13.5563 10.6731L13.5024 10.7172L13.4811 10.8114L13.4352 10.9492L13.3376 11.1479L13.2826 11.2578L13.2347 11.3544L13.1687 11.498H13.1458L13.1144 11.3832L13.0924 11.3408L13.0319 11.3715L12.9902 11.4038L12.9431 11.4633L12.8705 11.5847L12.8301 11.6634L12.8604 11.759H12.916L12.957 11.6919L13.086 11.7125L13.1687 11.6834L13.2727 11.6537L13.3376 11.5847L13.3997 11.4633L13.5318 11.163L13.653 10.9878Z" fill="#46362B"/>
<path d="M12.7805 11.5662L12.8579 11.6175L12.9451 11.4659L12.9908 11.4081L13.0318 11.3811L13.0942 11.3512L13.1156 11.396L13.1464 11.504H13.1687L13.2926 11.2404L13.4417 10.9488L13.485 10.8066L13.3529 10.8151L13.2345 10.8641L13.1385 10.9152L13.0343 10.9577H12.8816L12.8237 11.0115L12.7805 11.0391L12.7705 11.512L12.7805 11.5662Z" fill="#B88137"/>
<path d="M12.073 10.7603L12.0137 10.81L12.0541 10.8292L12.1927 10.8399L12.3098 10.8246L12.3803 10.7534L12.3958 10.6514L12.2123 10.7231L12.073 10.7603Z" fill="white"/>
<path d="M10.8279 7.22086L10.7871 7.36179L10.943 7.3523L10.9527 7.30191L10.9892 7.25171L11.0927 7.17307L11.1865 7.09995H11.2348L11.2996 7.11375L11.3107 7.14135V7.3523L11.4132 7.40262L11.4611 7.41079H11.5204L11.6327 7.33172H12.6377L12.7839 7.45035L12.9794 7.13467V6.90792L12.6903 6.51793L12.5316 6.33087L12.3853 6.26172L12.2232 6.27987L12.0611 6.34902L11.7831 6.43831L11.6228 6.53614L11.4938 6.57542L11.2058 6.75517L11.0567 6.8961L10.9607 7.02069L10.8279 7.22086Z" fill="white"/>
<path d="M11.3292 7.63126L11.1543 7.65996L11.2401 7.58643L11.394 7.47696L11.4598 7.41033H11.5188L11.6313 7.33301H12.6389L12.7814 7.44862L12.7293 7.53055L12.3779 7.53437L12.335 7.60406L12.121 7.54849H11.8602L11.6906 7.57332L11.5623 7.61056L11.3292 7.63126Z" fill="#707267"/>
<path d="M10.9526 7.30132L10.9434 7.35414H11.3132V7.14129L11.3017 7.11144L11.2359 7.09766H11.1876L11.0812 7.17728L10.9908 7.24773L10.9526 7.30132Z" fill="#0F0C0D"/>
<path d="M10.7004 7.45658L10.7877 7.36088L10.9416 7.35245H11.1036L11.2895 7.34375L11.316 7.34785L11.4194 7.40451L11.4623 7.41065L11.3912 7.48057L11.3606 7.50313L11.3074 7.5402L11.2389 7.58934L11.1552 7.65949L11.0695 7.68017L10.9523 7.70926L10.8528 7.80956L10.8007 7.86009L10.7647 7.91141L10.7563 7.99179L10.6507 7.96882L10.5955 7.91141L10.5488 7.8486V7.65873L10.5986 7.5569L10.7004 7.45658Z" fill="#CCA44B"/>
<path d="M10.2507 5.54359L11.6175 6.54152L11.7551 6.44624L12.0383 6.35892L12.2261 6.2769L12.3771 6.26103L12.5278 6.32716L12.6707 6.49652L12.9803 6.91197V7.13688L12.7289 7.53169H12.3771L12.3322 7.60122L12.9307 8.46127V9.09861L12.8176 9.48687L12.6793 9.88817L12.4907 10.3559L12.4002 10.6199L12.379 10.7482L12.3071 10.8244L12.1914 10.8362L12.0502 10.8244L12.0029 10.801L11.8184 10.8362L11.7013 10.851L11.6272 10.8892L11.4863 11.0736L11.4098 11.1497L11.3955 11.2166L11.4098 11.3385L11.4695 11.4579H11.5603L11.6416 11.403L11.7133 11.3142L11.8184 11.1879L11.9068 11.0971L11.9713 11.0541H12.0263L12.0502 11.0736L12.0812 11.1497L12.1597 11.3566L12.2057 11.5052L12.2835 11.5371L12.379 11.5052L12.4215 11.4451V11.3142L12.379 11.1748L12.3366 11.0736V10.9495L12.4463 10.8719L12.6162 10.8244L12.7207 10.7482L12.9187 10.5162L12.9833 10.2618L13.0048 9.90878L13.035 9.71074L13.134 9.48687L13.2384 9.22521L13.5147 9.26593L13.6426 9.38222V9.66135L13.5932 9.79219V10.1237L13.6978 10.3126V10.5162L13.674 10.6352L13.7421 10.9495L14.1507 11.1748H14.575L14.8055 10.9966L15.0022 10.5934L15.4745 8.92141L15.7351 8.93782L15.817 8.48732L15.4745 8.28999L15.266 7.95492V7.66451L15.9473 7.82461L15.7572 7.40993L16.3195 7.52569L17.2292 7.80133L17.8455 7.82889L18.078 7.73517L18.2764 7.5753L18.6017 7.19494L18.8938 7.002L19.1119 6.74118L19.5141 6.39122L19.8975 6.20134L20.4483 6.01891L20.899 5.98539L20.4483 5.63543L20.9213 5.73967L21.692 5.92582L21.6622 5.73967L22.0086 5.82531L21.692 5.5982L20.9809 5.32069L21.8745 5.44927L21.3198 5.1812L21.1671 5.08814L20.9586 5.023L20.3987 4.98441L20.1286 4.95685L19.7538 4.88518L19.638 5.023H20.1286L20.3382 5.11121L20.4483 5.23248L20.0394 5.22086L19.795 5.3082L19.366 5.46348L19.04 5.57574H18.664L18.4596 5.46933L18.2796 5.22966L18.1434 4.95632L18.0829 4.71971L17.9473 4.58265L17.8509 4.48312L17.7659 4.43029L17.6541 4.43488L17.5713 4.46254L17.4703 4.50303H17.3241L17.2314 4.45709L17.1554 4.32166L17.0414 4.1741L16.9005 4.08691H16.6724L16.4846 4.1741L16.1291 4.40889L15.9413 4.58326L15.72 4.85829L15.1565 5.50222L14.7742 5.95164L14.5023 6.14403L14.3717 6.20654L14.1705 6.31385L13.9558 6.4346L13.8015 6.58216L13.7144 6.7029H13.5265L13.3588 6.64925L13.2247 6.54152V6.20654L10.0938 4.97296L11.1616 5.88831L10.2507 5.54359Z" fill="#0F0C0D"/>
<path d="M19.5467 4.36523L19.3184 4.49355L19.4783 4.55182L19.6673 4.56815H21.391L21.6494 4.51746L21.6929 4.42572L21.5239 4.40279L20.7542 4.39577L19.5467 4.36523Z" fill="#0F0C0D"/>
<path d="M16.4111 8.75846L15.8172 8.48926L15.7338 8.93719L15.4711 8.91957L15.1182 10.186L15.6554 10.2925L16.4928 10.4973H17.227L17.5873 10.338H18.3892L18.5506 10.242L18.5669 10.052L18.6588 9.99894L18.7125 9.92949L18.6833 9.80694L18.4975 9.64762L18.6588 9.58839L18.7125 9.51294L18.4586 9.27008L18.1937 9.156L17.8846 9.11184L17.3694 9.07871L17.0703 9.04274L16.4111 8.75846Z" fill="#6F726D"/>
<path d="M15.7094 9.06036L15.7275 8.93938L15.82 8.49023L16.6862 8.87693V8.91823L16.6348 8.93938L16.6197 8.97267H16.5199L16.2598 8.84263H16.166L16.1902 8.97267L16.3142 9.18738V9.25694L16.2386 9.3507L16.2174 9.43538H15.8303L15.6519 9.41723L15.54 9.3507L15.7094 9.06036Z" fill="#5D6970" fill-opacity="0.8"/>
<path d="M20.5933 4.06152L17.166 4.341L17.2312 4.46218L17.32 4.50736H17.4716L17.6546 4.43691H17.7672L17.8483 4.48362L18.0788 4.72329L18.1393 4.95682L18.2787 5.23398L18.4588 5.47206L18.6632 5.58009H19.0413L20.0459 5.23245L20.4547 5.23808L20.3399 5.10765L20.1294 5.01884H19.6423L19.7563 4.88637L20.1844 4.96678L20.55 4.99614L20.946 5.02374L21.0067 5.04063L21.3833 5.06794L21.6285 5.01733H21.8345L21.6912 4.95464L21.5075 4.87404L21.239 4.81585L20.6747 4.73076L19.9553 4.62704L19.6921 4.60588L19.3262 4.49397L19.5709 4.35968L20.5933 4.06152Z" fill="#2E2B29"/>
<path d="M1.12816 14.1459L0.640521 14.2467L0.636719 16.7724L0.832214 16.7819L0.991195 16.8289L1.27664 16.9481L1.59821 17.1649L1.91256 17.4793L2.45093 18.1043L2.9098 18.6102L3.20247 18.8595L3.55297 19.0691L3.96848 19.2028H4.57549L4.91875 19.1413L5.30175 19.0076L5.83289 18.6969L6.33513 18.2561L6.86988 17.7249L7.13003 17.4865L7.37934 17.2841L7.73705 17.0348L8.17063 16.8253L8.64397 16.7313H9.26543L9.57978 16.8253L9.77852 16.8975L10.1471 17.1179L10.4542 17.3745L11.007 18.0393L11.3755 18.4584L11.7224 18.78L11.9826 18.9354L12.4089 19.1377L12.716 19.21H13.1496L13.5109 19.1377L13.8903 19.0293L14.4432 18.6825L15.0032 18.2019L15.4187 17.79L15.9065 17.3492L16.2606 17.0962L16.5388 16.9373L16.9146 16.7844L17.3193 16.7278H17.817L18.133 16.7844L18.4914 16.9182L18.7482 17.0894L19.0264 17.3248L19.6309 18.0149L20.043 18.491L20.503 18.8869L20.856 19.0795L21.2947 19.2132H21.803L22.2042 19.1597L22.7125 18.9618L23.2368 18.582L23.6381 18.2075L24.2853 17.5976L24.6544 17.2927L24.9968 17.0573L25.4996 16.8165L25.9205 16.6988V9.97266L24.7483 10.8378L24.0577 11.3122L23.039 12.0308L22.2995 12.5541L20.8064 13.5936L19.746 14.3262L19.0622 14.7797L18.853 14.8695L18.622 14.7164L16.9562 13.888L16.2219 13.6104L15.2726 13.3283H14.7845L14.5696 13.3776L14.0994 13.5567L13.4949 13.897L12.7764 14.4033L12.2305 14.8355L12.0844 15.0263L11.3877 14.4727L10.6273 13.8727L9.98541 13.3494L9.35052 12.868L8.64585 12.3587L7.71096 11.7727L7.07607 11.4866L6.7342 11.368L6.2249 11.2564H5.77838L5.40164 11.368L5.09466 11.5215L4.71092 11.7727L4.25046 12.1285L3.77603 12.5471L3.24579 12.9867L2.48531 13.5448L1.61998 13.991L1.12816 14.1459Z" fill="#57744B"/>
<path fill-rule="evenodd" clip-rule="evenodd" d="M0.406774 14.0553L0.402344 16.9967L0.793816 17.0156L0.91349 17.051L1.16566 17.1563L1.44911 17.3474L1.74123 17.6396L2.27586 18.2603L2.74694 18.7796L3.06609 19.0515L3.45651 19.2849L3.93275 19.4381H4.59755L4.97978 19.3697L5.40199 19.2223L5.9723 18.8887L6.49693 18.4283L7.03346 17.8953L7.28495 17.6648L7.52206 17.4724L7.85741 17.2386L8.2471 17.0503L8.66826 16.9667H9.23223L9.50704 17.0488L9.67822 17.1111L10.0116 17.3105L10.2882 17.5415L10.8294 18.1924L11.208 18.6229L11.5818 18.9694L11.8728 19.1432L12.3319 19.3611L12.6899 19.4454H13.1741L13.5676 19.3667L13.9882 19.2465L14.5842 18.8725L15.164 18.3751L15.5816 17.961L16.0554 17.5329L16.3888 17.2947L16.6431 17.1494L16.9773 17.0135L17.3368 16.9632H17.7973L18.0718 17.0124L18.3848 17.1292L18.6077 17.2778L18.8623 17.4931L19.4542 18.1689L19.4552 18.17L19.8775 18.6582L20.3697 19.0816L20.7657 19.2977L21.2608 19.4486H21.8198L22.2644 19.3893L22.8272 19.1702L23.3878 18.764L23.7996 18.3796L24.4421 17.7742L24.7975 17.4808L25.1162 17.2617L25.5839 17.0377L26.1569 16.8774V9.50684L24.613 10.6463L23.9244 11.1193L22.1662 12.3612L22.1648 12.3622L20.6739 13.4003L20.6732 13.4008L19.6153 14.1316L18.9511 14.5721L18.8782 14.6034L18.7409 14.5124L17.0516 13.6723L16.2983 13.3875L15.308 13.0932H14.7591L14.5023 13.1521L14.0005 13.3433L13.3703 13.698L12.6367 14.215L12.0627 14.6694L12.0444 14.6933L11.5353 14.2887L10.7756 13.6894L10.132 13.1647L9.49166 12.6792L8.77854 12.1637L7.82344 11.565L7.16428 11.268L6.79934 11.1414L6.25156 11.0214H5.74545L5.31614 11.1486L4.97843 11.3174L4.57558 11.5811L4.10175 11.9473L3.6243 12.3685L3.1022 12.8013L2.36224 13.3444L1.53127 13.7729L1.07006 13.9182L0.406774 14.0553ZM0.992376 16.829L0.833395 16.7821L0.6379 16.7726L0.641703 14.2469L1.12935 14.1461L1.62116 13.9912L2.4865 13.545L3.24697 12.9868L3.77721 12.5473L4.25164 12.1287L4.7121 11.7729L5.09584 11.5217L5.40282 11.3682L5.77956 11.2566H6.22608L6.73538 11.3682L7.07725 11.4868L7.71214 11.7729L8.64703 12.3589L9.3517 12.8682L9.98659 13.3496L10.6285 13.8729L11.3889 14.4729L12.084 15.0252L12.0834 15.026L12.5961 15.4478L13.2543 15.9224L13.8946 16.2985H14.1454L14.5797 16.2224L15.838 15.9493L16.8813 15.6537L17.6783 15.3895L18.2962 15.1567L18.8539 14.8696L18.8542 14.8697L19.0634 14.7799L19.7472 14.3264L20.8076 13.5938L22.3007 12.5543L23.0402 12.031L24.0589 11.3124L24.7495 10.838L25.9216 9.97282V16.699L25.5008 16.8167L24.998 17.0574L24.6556 17.2928L24.2865 17.5978L23.6392 18.2076L23.238 18.5821L22.7137 18.962L22.2054 19.1599L21.8042 19.2134H21.2959L20.8572 19.0797L20.5042 18.8871L20.0441 18.4912L19.6321 18.0151L19.0276 17.3249L18.7494 17.0895L18.4926 16.9183L18.1342 16.7846L17.8181 16.728H17.3204L16.9158 16.7846L16.54 16.9374L16.2618 17.0964L15.9077 17.3494L15.4199 17.7901L15.0044 18.2021L14.4443 18.6826L13.8915 19.0295L13.5121 19.1379L13.1508 19.2101H12.7172L12.4101 19.1379L11.9837 18.9355L11.7236 18.7802L11.3767 18.4586L11.0082 18.0395L10.4554 17.3746L10.1482 17.1181L9.7797 16.8977L9.58096 16.8254L9.26661 16.7315H8.64515L8.17181 16.8254L7.73823 17.035L7.38052 17.2843L7.13121 17.4866L6.87106 17.7251L6.33632 18.2563L5.83407 18.6971L5.30293 19.0078L4.91994 19.1415L4.57668 19.2029H3.96966L3.55415 19.0692L3.20365 18.8597L2.91098 18.6104L2.45211 18.1045L1.91374 17.4794L1.5994 17.1651L1.27782 16.9483L0.992376 16.829ZM18.6482 14.7331L18.6231 14.7166L16.9574 13.8882L16.2231 13.6106L15.2738 13.3284H14.7857L14.5708 13.3777L14.1006 13.5568L13.4961 13.8971L12.7776 14.4035L12.2316 14.8357L12.2041 14.8717L12.5961 15.1963L13.2543 15.6709L13.8946 16.0471H14.1454L14.5797 15.971L15.838 15.6978L16.8813 15.4023L17.6783 15.1381L18.2962 14.9052L18.6482 14.7331Z" fill="#24420E"/>
<path fill-rule="evenodd" clip-rule="evenodd" d="M1.35555 20.4552C1.35265 20.4509 1.34975 20.4468 1.34686 20.4425C-0.196683 18.1912 0.00912154 16.7586 0.00912154 16.7586V1H26.558V16.7586C26.558 16.7586 26.3522 18.2936 26.0435 18.8052C25.9568 18.9489 25.8702 19.1248 25.7698 19.3284C25.5807 19.7123 25.3429 20.1947 24.9654 20.7453C24.8052 20.9895 24.6214 21.245 24.4099 21.5033C24.2715 21.6725 24.1319 21.8455 23.9894 22.0225C23.2391 22.9532 22.4052 23.9878 21.2219 25.0864C19.8439 26.3662 18.0096 27.9557 16.4623 29.0516C15.2768 29.8913 14.5335 30.3496 14.0774 30.6007C13.8586 30.7211 13.7019 30.7961 13.5909 30.8434C13.3182 30.9806 13.2252 31 13.2252 31C13.2252 31 13.202 30.9888 13.1579 30.9667L13.1518 30.9679L12.9707 30.88L12.9746 30.872C12.9707 30.88 12.9707 30.88 12.9707 30.88L12.9704 30.8798L12.9699 30.8796L12.9685 30.8789L12.9641 30.8767L12.9488 30.8693C12.9358 30.8628 12.9171 30.8534 12.893 30.8412C12.8449 30.8167 12.7753 30.7809 12.6865 30.7338C12.509 30.6395 12.2545 30.4998 11.9415 30.3157C11.3157 29.9476 10.4536 29.4009 9.50214 28.6829C8.55343 27.9669 7.41376 26.9917 6.51819 26.2024C6.06887 25.8062 5.67809 25.4546 5.39958 25.2015C5.26027 25.0751 5.14897 24.9733 5.07237 24.903C5.03407 24.8679 5.00441 24.8406 4.98428 24.822L4.95341 24.7934C4.95341 24.7934 4.95327 24.7934 4.97762 24.7671L4.95341 24.7934L4.94494 24.7856L4.93694 24.7777L4.96194 24.7526C4.93692 24.7777 4.93694 24.7777 4.93694 24.7777L4.93495 24.7756L4.93012 24.7709L4.91225 24.7528C4.89674 24.7371 4.87416 24.7142 4.84509 24.6844C4.78697 24.6248 4.70288 24.538 4.59766 24.4274C4.3873 24.2061 4.09199 23.889 3.75022 23.5038C3.06858 22.7354 2.19402 21.6868 1.4402 20.5811C1.4114 20.5389 1.38319 20.4968 1.35555 20.4552ZM1.84308 20.1263C2.59277 21.2173 3.46988 22.2646 4.1653 23.0442C4.51379 23.4348 4.81461 23.7559 5.0278 23.979C5.13437 24.0905 5.21893 24.1773 5.2765 24.2359C5.30529 24.2651 5.32731 24.2875 5.34195 24.3022L5.35549 24.3157L5.37753 24.3359L5.42486 24.3792L5.46805 24.4186C5.54714 24.491 5.66253 24.5958 5.80719 24.7264C6.09659 24.9878 6.50277 25.3515 6.96963 25.7605C7.90642 26.5816 9.07604 27.5758 10.035 28.2956C10.9912 29.0134 11.8576 29.5597 12.4836 29.9256C12.7964 30.1085 13.0485 30.2461 13.2212 30.3373L13.2405 30.3475C13.2569 30.3428 13.2897 30.3318 13.344 30.3092C13.3991 30.2814 13.4634 30.2475 13.5379 30.2067C13.9638 29.9735 14.7049 29.5221 15.9291 28.6596C17.4919 27.559 19.3749 25.9387 20.8081 24.6152C21.9828 23.5305 22.8006 22.5224 23.5878 21.5517C23.7409 21.3632 23.8928 21.176 24.0459 20.9897C24.2154 20.7837 24.3603 20.5901 24.4863 20.4068C24.795 19.9351 24.9983 19.52 25.163 19.184C25.2584 18.9891 25.3409 18.8208 25.4235 18.6833C25.7171 18.1938 25.9129 16.7252 25.9129 16.7252V1.64777H0.653286V16.7252C0.653286 16.7252 0.464942 18.0436 1.84308 20.1263Z" fill="#176DFF"/>
<path d="M42.257 3.86364H44.7172V11.4205C44.7172 12.2689 44.5145 13.0114 44.1092 13.6477C43.7077 14.2841 43.1452 14.7803 42.4217 15.1364C41.6983 15.4886 40.8555 15.6648 39.8933 15.6648C38.9274 15.6648 38.0827 15.4886 37.3592 15.1364C36.6358 14.7803 36.0733 14.2841 35.6717 13.6477C35.2702 13.0114 35.0695 12.2689 35.0695 11.4205V3.86364H37.5297V11.2102C37.5297 11.6534 37.6263 12.0473 37.8195 12.392C38.0164 12.7367 38.293 13.0076 38.649 13.2045C39.0051 13.4015 39.4198 13.5 39.8933 13.5C40.3706 13.5 40.7854 13.4015 41.1377 13.2045C41.4937 13.0076 41.7683 12.7367 41.9615 12.392C42.1585 12.0473 42.257 11.6534 42.257 11.2102V3.86364ZM48.3413 15.5V3.86364H50.8016V8.66477H55.7959V3.86364H58.2504V15.5H55.7959V10.6932H50.8016V15.5H48.3413ZM61.8788 15.5V3.86364H69.7198V5.89205H64.3391V8.66477H69.3163V10.6932H64.3391V13.4716H69.7425V15.5H61.8788ZM73.2757 15.5V3.86364H77.8666C78.7454 3.86364 79.4954 4.02083 80.1166 4.33523C80.7416 4.64583 81.217 5.08712 81.5428 5.65909C81.8723 6.22727 82.0371 6.89583 82.0371 7.66477C82.0371 8.4375 81.8704 9.10227 81.5371 9.65909C81.2037 10.2121 80.7208 10.6364 80.0882 10.9318C79.4594 11.2273 78.6981 11.375 77.8041 11.375H74.7303V9.39773H77.4064C77.8761 9.39773 78.2662 9.33333 78.5769 9.20455C78.8875 9.07576 79.1185 8.88258 79.27 8.625C79.4253 8.36742 79.503 8.04735 79.503 7.66477C79.503 7.27841 79.4253 6.95265 79.27 6.6875C79.1185 6.42235 78.8856 6.22159 78.5712 6.08523C78.2606 5.94508 77.8685 5.875 77.395 5.875H75.7359V15.5H73.2757ZM79.5598 10.2045L82.4519 15.5H79.7359L76.9064 10.2045H79.5598ZM85.3757 15.5V3.86364H93.2166V5.89205H87.8359V8.66477H92.8132V10.6932H87.8359V13.4716H93.2394V15.5H85.3757Z" fill="#171717"/>
<path d="M35.0581 19.5L94.0581 19.5" stroke="#176DFF" stroke-width="0.5"/>
<path d="M37.394 23.7464C37.3675 23.5111 37.2582 23.3288 37.0659 23.1996C36.8737 23.0687 36.6317 23.0032 36.3401 23.0032C36.1313 23.0032 35.9506 23.0363 35.7982 23.1026C35.6457 23.1673 35.5272 23.2567 35.4427 23.3711C35.3598 23.4838 35.3184 23.6122 35.3184 23.7564C35.3184 23.8774 35.3466 23.9818 35.4029 24.0696C35.4609 24.1574 35.5363 24.2312 35.6291 24.2908C35.7236 24.3488 35.8247 24.3977 35.9324 24.4375C36.0401 24.4756 36.1437 24.5071 36.2431 24.532L36.7403 24.6612C36.9027 24.701 37.0692 24.7549 37.2399 24.8228C37.4106 24.8907 37.5689 24.9802 37.7147 25.0913C37.8605 25.2023 37.9782 25.3398 38.0677 25.5039C38.1588 25.668 38.2044 25.8643 38.2044 26.093C38.2044 26.3814 38.1298 26.6374 37.9807 26.8612C37.8332 27.0849 37.6186 27.2614 37.3369 27.3906C37.0568 27.5199 36.7179 27.5845 36.3202 27.5845C35.939 27.5845 35.6092 27.524 35.3308 27.4031C35.0524 27.2821 34.8345 27.1106 34.6771 26.8885C34.5196 26.6648 34.4326 26.3996 34.4161 26.093H35.1867C35.2016 26.277 35.2612 26.4303 35.3656 26.5529C35.4717 26.6739 35.6068 26.7642 35.7708 26.8239C35.9365 26.8819 36.118 26.9109 36.3152 26.9109C36.5323 26.9109 36.7254 26.8769 36.8944 26.8089C37.0651 26.7393 37.1993 26.6432 37.2971 26.5206C37.3949 26.3963 37.4438 26.2513 37.4438 26.0856C37.4438 25.9348 37.4007 25.8113 37.3145 25.7152C37.23 25.6191 37.1148 25.5395 36.969 25.4766C36.8248 25.4136 36.6616 25.3581 36.4793 25.31L35.8777 25.146C35.47 25.0349 35.1469 24.8717 34.9082 24.6562C34.6713 24.4408 34.5528 24.1558 34.5528 23.8011C34.5528 23.5078 34.6323 23.2518 34.7914 23.033C34.9505 22.8143 35.1659 22.6444 35.4377 22.5234C35.7095 22.4008 36.0161 22.3395 36.3575 22.3395C36.7022 22.3395 37.0063 22.4 37.2698 22.521C37.5349 22.6419 37.7437 22.8085 37.8962 23.0206C38.0486 23.2311 38.1282 23.473 38.1348 23.7464H37.394ZM39.2912 23.0703V22.4091H43.2312V23.0703H41.6428V27.5H40.8772V23.0703H39.2912ZM47.7957 22.4091H48.5663V25.7575C48.5663 26.1138 48.4826 26.4295 48.3152 26.7045C48.1478 26.978 47.9125 27.1934 47.6092 27.3509C47.306 27.5066 46.9505 27.5845 46.5428 27.5845C46.1368 27.5845 45.7822 27.5066 45.4789 27.3509C45.1756 27.1934 44.9403 26.978 44.7729 26.7045C44.6056 26.4295 44.5219 26.1138 44.5219 25.7575V22.4091H45.29V25.6953C45.29 25.9257 45.3405 26.1303 45.4416 26.3093C45.5444 26.4883 45.6894 26.6291 45.8766 26.7319C46.0639 26.833 46.2859 26.8835 46.5428 26.8835C46.8013 26.8835 47.0242 26.833 47.2115 26.7319C47.4004 26.6291 47.5446 26.4883 47.644 26.3093C47.7451 26.1303 47.7957 25.9257 47.7957 25.6953V22.4091ZM51.7511 27.5H50.103V22.4091H51.8033C52.3021 22.4091 52.7305 22.511 53.0884 22.7148C53.4464 22.917 53.7207 23.2079 53.9112 23.5874C54.1035 23.9652 54.1996 24.4184 54.1996 24.9471C54.1996 25.4774 54.1026 25.9331 53.9087 26.3143C53.7165 26.6954 53.4381 26.9888 53.0735 27.1942C52.7089 27.3981 52.2681 27.5 51.7511 27.5ZM50.8711 26.8288H51.7088C52.0966 26.8288 52.4189 26.7559 52.6758 26.6101C52.9327 26.4626 53.1249 26.2496 53.2525 25.9712C53.3801 25.6912 53.4439 25.3498 53.4439 24.9471C53.4439 24.5477 53.3801 24.2088 53.2525 23.9304C53.1266 23.652 52.9385 23.4407 52.6882 23.2965C52.438 23.1523 52.1273 23.0803 51.756 23.0803H50.8711V26.8288ZM54.9222 22.4091H55.7947L57.1246 24.7234H57.1793L58.5092 22.4091H59.3817L57.5348 25.5014V27.5H56.7692V25.5014L54.9222 22.4091ZM67.0279 24.0646H66.2523C66.2225 23.8989 66.1669 23.7531 66.0857 23.6271C66.0045 23.5012 65.9051 23.3943 65.7874 23.3065C65.6698 23.2186 65.538 23.1523 65.3922 23.1076C65.248 23.0629 65.0947 23.0405 64.9323 23.0405C64.639 23.0405 64.3763 23.1142 64.1443 23.2617C63.914 23.4092 63.7317 23.6255 63.5975 23.9105C63.4649 24.1955 63.3986 24.5436 63.3986 24.9545C63.3986 25.3688 63.4649 25.7185 63.5975 26.0036C63.7317 26.2886 63.9148 26.504 64.1468 26.6499C64.3788 26.7957 64.6398 26.8686 64.9298 26.8686C65.0906 26.8686 65.2431 26.8471 65.3872 26.804C65.5331 26.7592 65.6648 26.6938 65.7825 26.6076C65.9001 26.5214 65.9996 26.4162 66.0808 26.2919C66.1636 26.166 66.2208 26.0218 66.2523 25.8594L67.0279 25.8619C66.9864 26.1121 66.9061 26.3424 66.7867 26.5529C66.6691 26.7617 66.5174 26.9424 66.3318 27.0948C66.1479 27.2456 65.9374 27.3625 65.7004 27.4453C65.4635 27.5282 65.2049 27.5696 64.9249 27.5696C64.4841 27.5696 64.0913 27.4652 63.7466 27.2564C63.4019 27.0459 63.1301 26.7451 62.9313 26.354C62.7341 25.9629 62.6355 25.4964 62.6355 24.9545C62.6355 24.411 62.7349 23.9445 62.9338 23.555C63.1326 23.1639 63.4044 22.864 63.7491 22.6552C64.0938 22.4447 64.4857 22.3395 64.9249 22.3395C65.195 22.3395 65.4469 22.3784 65.6806 22.4563C65.9159 22.5326 66.1272 22.6452 66.3144 22.7944C66.5017 22.9419 66.6566 23.1225 66.7793 23.3363C66.9019 23.5484 66.9848 23.7912 67.0279 24.0646ZM68.367 27.5V22.4091H71.5587V23.0703H69.1351V24.6214H71.3922V25.2802H69.1351V26.8388H71.5886V27.5H68.367ZM77.1138 22.4091V27.5H76.4078L73.8201 23.7663H73.7729V27.5H73.0048V22.4091H73.7157L76.3059 26.1477H76.3531V22.4091H77.1138ZM78.4032 23.0703V22.4091H82.3432V23.0703H80.7547V27.5H79.9891V23.0703H78.4032ZM83.6338 27.5V22.4091H85.4484C85.8429 22.4091 86.1702 22.477 86.4303 22.6129C86.6922 22.7488 86.8877 22.9369 87.017 23.1772C87.1462 23.4158 87.2109 23.6918 87.2109 24.005C87.2109 24.3165 87.1454 24.5908 87.0145 24.8278C86.8852 25.0631 86.6897 25.2462 86.4279 25.3771C86.1677 25.508 85.8404 25.5735 85.446 25.5735H84.0713V24.9123H85.3764C85.6249 24.9123 85.8271 24.8767 85.9829 24.8054C86.1403 24.7341 86.2555 24.6306 86.3284 24.4947C86.4013 24.3588 86.4378 24.1955 86.4378 24.005C86.4378 23.8127 86.4005 23.6462 86.3259 23.5053C86.253 23.3645 86.1378 23.2567 85.9804 23.1822C85.8246 23.1059 85.62 23.0678 85.3664 23.0678H84.4019V27.5H83.6338ZM86.147 25.2031L87.4048 27.5H86.5298L85.2968 25.2031H86.147ZM88.5655 27.5V22.4091H91.7573V23.0703H89.3336V24.6214H91.5907V25.2802H89.3336V26.8388H91.7871V27.5H88.5655Z" fill="#171717"/>
</svg>
