<svg width="36" height="40" viewBox="0 0 36 40" fill="none" xmlns="http://www.w3.org/2000/svg">
<g id="Logo">
<g id="Group 1">
<path id="Vector" d="M0.853136 20.9635V0.839355H34.5676V20.9635C34.5676 20.9635 34.3063 22.9236 33.9143 23.577C33.5222 24.2304 33.1302 25.4065 31.9541 26.844C30.778 28.2815 29.6019 29.8496 27.7725 31.5484C25.943 33.2472 23.5239 35.3416 21.5 36.7754C18.3638 38.9969 17.6362 39.1501 17.6362 39.1501C17.6362 39.1501 15.6195 38.171 13.1367 36.2971C10.6539 34.4232 7.1256 31.1563 7.1256 31.1563C7.1256 31.1563 4.51208 28.5428 2.55193 25.6678C0.591784 22.793 0.853136 20.9635 0.853136 20.9635Z" fill="#3FA9F5"/>
<path id="Vector_2" d="M0.853136 20.9636V20.7588H34.5676V20.9636C34.5676 20.9636 34.3063 22.9238 33.9143 23.5771C33.5222 24.2305 33.1302 25.4066 31.9541 26.8441C30.778 28.2816 29.6019 29.8497 27.7725 31.5485C25.943 33.2473 23.5239 35.3418 21.5 36.7755C18.3638 38.997 17.6362 39.1502 17.6362 39.1502C17.6362 39.1502 15.6195 38.1712 13.1367 36.2973C10.6539 34.4234 7.1256 31.1565 7.1256 31.1565C7.1256 31.1565 4.51208 28.5429 2.55193 25.668C0.591784 22.7931 0.853136 20.9636 0.853136 20.9636Z" fill="white"/>
<path id="Vector_3" d="M8.70841 32.2347L8.54883 32.443L9.12417 32.9445L9.89879 33.6306L11.0779 34.6407L11.2542 34.4755L11.4328 34.3347L11.6865 34.2171L12.0108 34.1091H12.523L12.7062 34.175L12.9412 34.2735L13.209 34.4755L14.4276 35.6448L15.0234 36.0619L15.5661 36.3601L16.1373 36.5601L16.6261 36.6902L17.0799 36.7475H18.0479L18.7302 36.6427L19.1904 36.5094L19.8188 36.2681L20.4725 35.9096L21.3262 35.3098L22.0181 34.7353L22.4687 34.4118L22.9321 34.1927L23.259 34.1227L23.6969 34.1005L23.9413 34.1483L24.2999 34.307L24.484 34.4497L24.8014 34.1831L25.7693 33.3517L26.1852 32.9835L26.6104 32.6121L27.0427 32.2201L26.7596 31.9584L26.4094 31.6702L25.6883 31.1963L24.9466 30.877L24.3492 30.7533L23.5971 30.6914L22.7833 30.7533L22.3095 30.877L21.6708 31.0314L21.1454 31.2787L20.7024 31.5259L20.0534 31.9584L19.4023 32.4926L18.6833 33.0378L18.1806 33.2587L17.8189 33.4118H17.2673L17.0417 33.3115L16.603 33.0232L16.1267 32.5593L15.337 31.8066L14.4971 31.2308L13.6128 30.9026L12.8598 30.7518L12.2709 30.7202L11.4708 30.7897L10.8376 30.9149L10.2045 31.1514L9.68968 31.4506L9.19607 31.8066L8.70841 32.2347Z" fill="#0D0D86"/>
<path id="Vector_4" d="M2.3448 24.6299H1.92017L2.07558 24.9152L2.39067 25.4054L3.00435 26.3038L4.32447 28.0363L5.48208 29.3856L6.09931 30.0725L6.58574 30.5858L7.39638 30.5549L7.88688 30.4206L8.62523 30.1057L9.07959 29.8166L9.63724 29.3674L10.2775 28.7683L10.8609 28.2522L11.4134 27.9785H11.842L12.0743 28.0352L12.3376 28.1437L12.7817 28.4741L13.1483 28.8407L13.8298 29.4706L14.248 29.8268L14.8701 30.1802L15.467 30.4188L16.5206 30.6388L17.4822 30.6072L18.2503 30.4818L19.0231 30.2303L19.9466 29.7466L20.5121 29.3697L21.1089 28.8731L21.5361 28.5339L21.9634 28.2765L22.3906 28.069L22.7173 27.9937H23.2074L23.5718 28.069L23.7037 28.157L24.0869 28.4774L24.4765 28.8731L25.243 29.577L25.8273 29.9726L26.4932 30.3119L27.2222 30.5131L27.9696 30.6135H28.7299L29.019 30.3119L29.9488 29.2879L30.665 28.4398L31.7833 27.0638L32.4367 26.2094L32.8263 25.5874L33.1593 25.0475L33.376 24.6149H32.8645L32.3826 24.6916L31.8405 24.8175L31.2436 25.0475L30.7015 25.3213L30.1595 25.7211L29.694 26.1702L29.2667 26.6409L28.9 27.0518L28.5932 27.2269H28.0237L27.6787 27.1393L27.1367 26.7287L26.5946 26.1647L25.691 25.4089L24.9518 24.9873L24.2837 24.7464L23.5977 24.6205H22.3331L21.9284 24.6879L21.6012 24.7629L21.1091 24.8952L20.6745 25.1076L20.0725 25.4473L19.2882 25.9792L18.881 26.314L18.4364 26.6812L17.9418 26.9809L17.4822 27.1809L17.215 27.2483H16.7778L16.5206 27.1809L16.2558 27.0659L15.8586 26.7387L15.3041 26.1741L14.6996 25.6246L14.3849 25.3848L13.8754 25.0876L13.4108 24.8903L13.0136 24.7579L12.5165 24.628L11.7072 24.583L11.0471 24.6212L10.6485 24.6935L10.3626 24.7512L9.95536 24.8927L9.35171 25.1642L8.93867 25.4328L8.56031 25.7014L8.28304 25.9643L7.535 26.7094L7.00354 27.1283L6.63673 27.2381H5.96665L5.66628 26.9376L5.24749 26.3657L4.83157 25.8978L4.51387 25.5772L4.18459 25.3144L3.69936 25.0343L3.0004 24.757L2.3448 24.6299Z" fill="#0D0D86"/>
<path id="Vector_5" d="M18.0707 6.94552H17.6316V7.39063L17.8184 7.53866L18.042 7.6081H18.2942L18.4048 7.44658L18.6157 7.2518L18.7913 7.15481L19.1128 6.97327L19.3365 6.86894L19.5274 6.72705L19.702 6.60555L20.1737 6.05119L20.4309 5.75717L20.8178 5.31308L21.2711 4.78426L21.4916 4.55762L21.3167 4.5705L21.1675 4.63903L20.8893 4.76806L20.6998 4.90921L20.224 5.48179L19.5465 6.24389L19.1836 6.5947L18.8973 6.72373L18.0707 6.94552Z" fill="#453629"/>
<path id="Vector_6" d="M19.5789 6.38453L19.5044 6.28639L19.6109 6.17116L19.85 5.90824L20.1351 5.58453L20.3699 5.30501L20.6986 4.90888L20.8926 4.76597L21.3183 4.56996L21.499 4.55566L21.253 4.78231L21.0365 5.05182L20.5892 5.56793L20.3251 5.86562L20.0673 6.17116L19.9449 6.23619L19.7438 6.36467L19.5789 6.38453Z" fill="#5B4C3C"/>
<path id="Vector_7" d="M12.7866 4.9809L13.4654 5.29847L14.8915 6.52254L13.6761 6.06196L13.2577 5.90078L12.5115 5.56852L12.0367 5.3452L11.6918 5.22265L11.4276 5.15185L11.1628 5.09671L10.961 5.05345L11.22 4.92871L11.2047 4.8854L11.131 4.82427L10.959 4.80276L11.0858 4.68408L11.5608 4.69725L12.0367 4.75812L12.5347 4.8854L12.7866 4.9809Z" fill="#38312D"/>
<path id="Vector_8" d="M11.0783 4.6483L11.3083 4.69043H11.09L10.9721 4.80255L10.4663 4.77122L10.1955 4.75778L10.1776 4.69043L10.2089 4.58992L10.276 4.46682L9.5144 3.78027L11.0783 4.6483Z" fill="#303848"/>
<path id="Vector_9" d="M13.4583 5.70557V5.97596L14.8864 6.51952L14.3143 6.03181L14.0511 5.84596L13.7674 5.70557H13.4583Z" fill="#5B473E"/>
<path id="Vector_10" d="M18.2049 13.3176L18.3228 13.2589L18.233 12.8403L18.1422 12.8575L18.0759 12.898L18.0041 12.9568L17.9757 13.0823L17.9144 13.266L17.7843 13.531L17.711 13.6776L17.6472 13.8064L17.5591 13.9978H17.5287L17.4868 13.8448L17.4574 13.7882L17.3768 13.8291L17.3212 13.8722L17.2584 13.9516L17.1615 14.1135L17.1077 14.2184L17.148 14.3459H17.2223L17.2768 14.2564L17.4489 14.2838L17.5591 14.245L17.6979 14.2054L17.7843 14.1135L17.8671 13.9516L18.0434 13.5511L18.2049 13.3176Z" fill="#46362B"/>
<path id="Vector_11" d="M17.0405 14.088L17.1436 14.1564L17.2599 13.9541L17.3208 13.8771L17.3755 13.8411L17.4587 13.8013L17.4872 13.861L17.5282 14.0051H17.5581L17.7233 13.6535L17.922 13.2647L17.9798 13.0752L17.8037 13.0865L17.6457 13.1518L17.5177 13.2199L17.3788 13.2766H17.1753L17.098 13.3483L17.0405 13.3851L17.0271 14.0157L17.0405 14.088Z" fill="#B88137"/>
<path id="Vector_12" d="M16.0976 13.013L16.0186 13.0792L16.0725 13.1048L16.2572 13.1191L16.4135 13.0987L16.5074 13.0037L16.528 12.8677L16.2834 12.9633L16.0976 13.013Z" fill="white"/>
<path id="Vector_13" d="M14.437 8.29496L14.3826 8.48288L14.5904 8.47023L14.6033 8.40303L14.652 8.3361L14.79 8.23125L14.9151 8.13376H14.9794L15.0659 8.15216L15.0807 8.18896V8.47023L15.2173 8.53732L15.2813 8.54821H15.3602L15.51 8.44278H16.85L17.045 8.60095L17.3056 8.18005V7.87771L16.9201 7.35773L16.7085 7.10832L16.5135 7.01611L16.2973 7.04031L16.0812 7.13252L15.7105 7.25157L15.4968 7.38201L15.3248 7.43438L14.9408 7.67404L14.742 7.86195L14.614 8.02807L14.437 8.29496Z" fill="white"/>
<path id="Vector_14" d="M15.1064 8.84201L14.8733 8.88027L14.9876 8.78224L15.1928 8.63627L15.2806 8.54744H15.3592L15.5093 8.44434H16.8528L17.0427 8.59848L16.9733 8.70773L16.5047 8.71282L16.4475 8.80573L16.1622 8.73164H15.8146L15.5883 8.76475L15.4173 8.81441L15.1064 8.84201Z" fill="#707267"/>
<path id="Vector_15" d="M14.6026 8.40143L14.5903 8.47186H15.0834V8.18806L15.0681 8.14826L14.9803 8.12988H14.916L14.7741 8.23604L14.6536 8.32997L14.6026 8.40143Z" fill="#0F0C0D"/>
<path id="Vector_16" d="M14.2678 8.60844L14.3842 8.48085L14.5894 8.46961H14.8054L15.0533 8.45801L15.0886 8.46347L15.2264 8.53903L15.2836 8.54721L15.1888 8.64043L15.148 8.67051L15.0771 8.71994L14.9858 8.78546L14.8742 8.87899L14.7599 8.90657L14.6037 8.94535L14.471 9.07909L14.4015 9.14646L14.3536 9.21488L14.3423 9.32206L14.2014 9.29143L14.128 9.21488L14.0657 9.13115V8.87797L14.132 8.7422L14.2678 8.60844Z" fill="#CCA44B"/>
<path id="Vector_17" d="M13.6685 6.05845L15.4909 7.38902L15.6744 7.26198L16.0519 7.14555L16.3024 7.0362L16.5036 7.01503L16.7046 7.10321L16.8951 7.32902L17.3079 7.88295V8.18283L16.9727 8.70925H16.5036L16.4438 8.80195L17.2419 9.94868V10.7985L17.091 11.3162L16.9066 11.8512L16.6551 12.4748L16.5344 12.8269L16.5063 12.998L16.4104 13.0995L16.2561 13.1152L16.0678 13.0995L16.0047 13.0683L15.7588 13.1152L15.6026 13.135L15.5039 13.186L15.3159 13.4318L15.2139 13.5333L15.1948 13.6225L15.2139 13.7849L15.2936 13.9442H15.4147L15.523 13.871L15.6186 13.7526L15.7588 13.5842L15.8766 13.4632L15.9626 13.4058H16.0359L16.0678 13.4318L16.1092 13.5333L16.2138 13.8091L16.2751 14.0073L16.3789 14.0497L16.5063 14.0073L16.5629 13.9271V13.7526L16.5063 13.5667L16.4496 13.4318V13.2663L16.5959 13.1629L16.8225 13.0995L16.9618 12.998L17.2259 12.6886L17.312 12.3494L17.3407 11.8787L17.3808 11.6146L17.5129 11.3162L17.6522 10.9673L18.0204 11.0216L18.191 11.1766V11.5488L18.1251 11.7232V12.1652L18.2647 12.4172V12.6886L18.2329 12.8472L18.3237 13.2663L18.8685 13.5667H19.4343L19.7416 13.3292L20.0039 12.7915L20.6335 10.5622L20.981 10.5841L21.0902 9.98342L20.6335 9.72031L20.3555 9.27356V8.88634L21.264 9.09981L21.0105 8.54689L21.7602 8.70125L22.9731 9.06876L23.7949 9.10551L24.1048 8.98056L24.3694 8.7674L24.8031 8.26024L25.1926 8.00299L25.4835 7.65524L26.0197 7.18862L26.5309 6.93545L27.2653 6.69221L27.8662 6.64751L27.2653 6.1809L27.896 6.31988L28.9236 6.56809L28.8839 6.31988L29.3457 6.43407L28.9236 6.13126L27.9754 5.76124L29.1669 5.93269L28.4273 5.57526L28.2237 5.45117L27.9456 5.36433L27.1992 5.31287L26.8391 5.27612L26.3394 5.18057L26.1849 5.36433H26.8391L27.1185 5.48193L27.2653 5.64363L26.7201 5.62813L26.3942 5.74459L25.8223 5.95164L25.3875 6.10131H24.8862L24.6136 5.95943L24.3738 5.63987L24.192 5.27541L24.1114 4.95994L23.9307 4.7772L23.802 4.64448L23.6887 4.57405L23.5397 4.58016L23.4293 4.61704L23.2947 4.67104H23.0997L22.9761 4.60978L22.8748 4.42921L22.7227 4.23246L22.5349 4.11621H22.2308L21.9804 4.23246L21.5064 4.54551L21.256 4.77801L20.9608 5.14471L20.2096 6.00328L19.6998 6.60251L19.3373 6.85903L19.1632 6.94237L18.8949 7.08546L18.6087 7.24646L18.4029 7.4432L18.2867 7.60419H18.0363L17.8127 7.53266L17.6338 7.38902V6.94237L13.4592 5.2976L14.8831 6.51807L13.6685 6.05845Z" fill="#0F0C0D"/>
<path id="Vector_18" d="M26.0623 4.48779L25.7578 4.65887L25.971 4.73657L26.223 4.75835H28.5214L28.8658 4.69076L28.9238 4.56845L28.6986 4.53787L27.6722 4.52851L26.0623 4.48779Z" fill="#0F0C0D"/>
<path id="Vector_19" d="M21.8814 10.3448L21.0895 9.98584L20.9783 10.5831L20.6281 10.5596L20.1575 12.2482L20.8738 12.3901L21.9903 12.6632H22.9693L23.4497 12.4508H24.5188L24.734 12.3228L24.7558 12.0696L24.8783 11.9988L24.95 11.9062L24.911 11.7428L24.6632 11.5303L24.8783 11.4513L24.95 11.3508L24.6114 11.0269L24.2581 10.8748L23.846 10.8159L23.1591 10.7718L22.7604 10.7238L21.8814 10.3448Z" fill="#6F726D"/>
<path id="Vector_20" d="M20.9458 10.748L20.97 10.5867L21.0932 9.98779L22.2482 10.5034V10.5585L22.1796 10.5867L22.1595 10.631H22.0264L21.6796 10.4577H21.5546L21.5869 10.631L21.7522 10.9173V11.0101L21.6514 11.1351L21.6232 11.248H21.107L20.8691 11.2238L20.72 11.1351L20.9458 10.748Z" fill="#5D6970" fill-opacity="0.8"/>
<path id="Vector_21" d="M27.4579 4.08252L22.8882 4.45516L22.9751 4.61672L23.0935 4.67697H23.2957L23.5397 4.58304H23.6897L23.798 4.64532L24.1052 4.96487L24.1859 5.27625L24.3717 5.6458L24.6119 5.96324L24.8845 6.10727H25.3885L26.728 5.64376L27.2732 5.65126L27.12 5.47736L26.8393 5.35894H26.1898L26.342 5.18232L26.9128 5.28952L27.4002 5.32867L27.9281 5.36547L28.0091 5.388L28.5112 5.42441L28.8381 5.35693H29.1128L28.9218 5.27335L28.6769 5.16588L28.3188 5.08828L27.5664 4.97483L26.6072 4.83655L26.2562 4.80832L25.7684 4.65912L26.0947 4.48006L27.4579 4.08252Z" fill="#2E2B29"/>
<path id="Vector_22" d="M1.50511 17.5282L0.854924 17.6626L0.849854 21.0302L1.11051 21.0429L1.32249 21.1055L1.70308 21.2645L2.13185 21.5535L2.55098 21.9727L3.26881 22.8061L3.88063 23.4806L4.27086 23.813L4.73818 24.0924L5.2922 24.2707H6.10155L6.55923 24.1888L7.06989 24.0105L7.77808 23.5962L8.44774 23.0084L9.16074 22.3003L9.5076 21.9823L9.84002 21.7125L10.317 21.3801L10.8951 21.1007L11.5262 20.9754H12.3548L12.7739 21.1007L13.0389 21.197L13.5303 21.4909L13.9398 21.833L14.6769 22.7194L15.1683 23.2782L15.6308 23.707L15.9776 23.9142L16.5461 24.184L16.9556 24.2803H17.5337L18.0155 24.184L18.5213 24.0394L19.2584 23.5769L20.0052 22.9362L20.5592 22.387L21.2096 21.7992L21.6817 21.462L22.0527 21.25L22.5537 21.0462L23.0933 20.9708H23.7569L24.1782 21.0462L24.6561 21.2246L24.9985 21.4528L25.3694 21.7667L26.1755 22.6868L26.7248 23.3217L27.3382 23.8495L27.8089 24.1063L28.3938 24.2847H29.0715L29.6065 24.2133L30.2842 23.9494L30.9833 23.4429L31.5183 22.9436L32.3813 22.1305L32.8734 21.7239L33.33 21.41L34.0004 21.089L34.5615 20.9321V11.9639L32.9986 13.1174L32.0779 13.7499L30.7196 14.7081L29.7335 15.4058L27.7428 16.7918L26.3289 17.7686L25.4172 18.3733L25.1382 18.4931L24.8302 18.2889L22.6092 17.1843L21.6301 16.8142L20.3644 16.438H19.7136L19.427 16.5037L18.8001 16.7425L17.9941 17.1963L17.0361 17.8714L16.3082 18.4477L16.1134 18.702L15.1845 17.9639L14.1706 17.1639L13.3148 16.4662L12.4683 15.8244L11.5287 15.1453L10.2822 14.3639L9.43565 13.9825L8.97983 13.8244L8.30076 13.6755H7.70539L7.20308 13.8244L6.79377 14.029L6.28212 14.3639L5.66818 14.8384L5.0356 15.3965L4.32862 15.9826L3.31465 16.7268L2.16087 17.3217L1.50511 17.5282Z" fill="#57744B"/>
<path id="Vector_23" fill-rule="evenodd" clip-rule="evenodd" d="M0.541795 17.4068L0.535889 21.3287L1.05785 21.354L1.21742 21.4012L1.55364 21.5416L1.93157 21.7964L2.32107 22.1859L3.03391 23.0136L3.66202 23.706L4.08755 24.0685L4.60811 24.3797L5.24309 24.584H6.1295L6.63914 24.4928L7.20209 24.2963L7.96249 23.8515L8.662 23.2375L9.37738 22.5269L9.71269 22.2196L10.0289 21.963L10.476 21.6514L10.9956 21.4002L11.5571 21.2888H12.3091L12.6755 21.3983L12.9037 21.4813L13.3483 21.7471L13.717 22.0551L14.4386 22.923L14.9435 23.4971L15.4418 23.9591L15.8298 24.1908L16.4419 24.4813L16.9193 24.5936H17.5649L18.0896 24.4887L18.6504 24.3285L19.445 23.8299L20.2181 23.1666L20.7749 22.6145L21.4066 22.0437L21.8512 21.7262L22.1903 21.5324L22.6358 21.3511L23.1152 21.2841H23.7291L24.0952 21.3497L24.5126 21.5054L24.8097 21.7036L25.1491 21.9907L25.9384 22.8918L25.9397 22.8932L26.5028 23.5441L27.1591 24.1087L27.687 24.3967L28.3472 24.598H29.0926L29.6853 24.5189L30.4356 24.2268L31.1831 23.6852L31.7322 23.1726L32.5889 22.3655L33.0628 21.9742L33.4877 21.6821L34.1113 21.3834L34.8752 21.1698V11.3423L32.8168 12.8616L31.8987 13.4923L29.5544 15.1481L29.5525 15.1495L27.5647 16.5335L27.5636 16.5342L26.1531 17.5086L25.2676 18.096L25.1703 18.1377L24.9873 18.0164L22.7349 16.8963L21.7304 16.5165L20.4101 16.1241H19.6782L19.3358 16.2026L18.6668 16.4575L17.8266 16.9305L16.8484 17.6198L16.0831 18.2257L16.0586 18.2576L15.3798 17.7181L14.3669 16.919L13.5088 16.2194L12.655 15.572L11.7041 14.8848L10.4307 14.0865L9.5518 13.6905L9.06522 13.5217L8.33484 13.3617H7.66003L7.08762 13.5312L6.63733 13.7564L6.1002 14.108L5.46843 14.5962L4.83183 15.1579L4.13569 15.7349L3.14909 16.459L2.04113 17.0304L1.42618 17.224L0.541795 17.4068ZM1.3226 21.1052L1.11062 21.0426L0.849964 21.03L0.855034 17.6623L1.50522 17.528L2.16098 17.3214L3.31476 16.7265L4.32873 15.9823L5.03571 15.3962L5.66829 14.8381L6.28223 14.3637L6.79388 14.0288L7.20319 13.8241L7.70551 13.6752H8.30087L8.97994 13.8241L9.43576 13.9822L10.2823 14.3637L11.5288 15.145L12.4684 15.8241L13.3149 16.466L14.1707 17.1637L15.1847 17.9637L16.1114 18.7001L16.1106 18.7011L16.7942 19.2635L17.6718 19.8964L18.5256 20.3979H18.8599L19.4391 20.2964L21.1167 19.9322L22.5078 19.5381L23.5705 19.1859L24.3944 18.8754L25.138 18.4926L25.1383 18.4928L25.4173 18.373L26.329 17.7683L27.7429 16.7916L29.7337 15.4055L30.7197 14.7078L32.078 13.7497L32.9987 13.1171L34.5616 11.9636V20.9318L34.0005 21.0887L33.3301 21.4097L32.8735 21.7236L32.3814 22.1302L31.5184 22.9434L30.9834 23.4427L30.2843 23.9491L29.6066 24.2131L29.0716 24.2844H28.394L27.809 24.1061L27.3384 23.8493L26.725 23.3214L26.1756 22.6866L25.3696 21.7664L24.9986 21.4525L24.6563 21.2243L24.1783 21.046L23.757 20.9705H23.0934L22.5538 21.046L22.0528 21.2498L21.6818 21.4617L21.2097 21.799L20.5593 22.3867L20.0053 22.9359L19.2585 23.5767L18.5214 24.0392L18.0156 24.1837L17.5338 24.28H16.9557L16.5463 24.1837L15.9778 23.9139L15.6309 23.7067L15.1684 23.278L14.677 22.7191L13.9399 21.8327L13.5304 21.4906L13.039 21.1968L12.774 21.1004L12.3549 20.9752H11.5263L10.8952 21.1004L10.3171 21.3798L9.84013 21.7123L9.50771 21.982L9.16085 22.3L8.44785 23.0082L7.77819 23.5959L7.07 24.0102L6.55934 24.1885L6.10166 24.2704H5.29231L4.73829 24.0921L4.27097 23.8127L3.88074 23.4803L3.26892 22.8058L2.55109 21.9724L2.13196 21.5533L1.70319 21.2642L1.3226 21.1052ZM24.8636 18.3107L24.8303 18.2886L22.6093 17.1841L21.6302 16.8139L20.3645 16.4378H19.7137L19.4271 16.5035L18.8003 16.7423L17.9942 17.196L17.0362 17.8711L16.3083 18.4474L16.2715 18.4954L16.7942 18.9282L17.6718 19.5611L18.5256 20.0626H18.8599L19.4391 19.9611L21.1167 19.5969L22.5078 19.2029L23.5705 18.8506L24.3944 18.5402L24.8636 18.3107Z" fill="#24420E"/>
<path id="Vector_24" fill-rule="evenodd" clip-rule="evenodd" d="M1.8074 25.9403C1.80353 25.9345 1.79967 25.929 1.79581 25.9233C-0.262245 22.9216 0.0121621 21.0115 0.0121621 21.0115V0H35.4107V21.0115C35.4107 21.0115 35.1362 23.0581 34.7246 23.7403C34.6091 23.9318 34.4936 24.1664 34.3598 24.4379C34.1076 24.9497 33.7905 25.5929 33.2872 26.3271C33.0736 26.6527 32.8285 26.9933 32.5465 27.3377C32.362 27.5633 32.1759 27.7941 31.9859 28.0301C30.9854 29.271 29.8736 30.6504 28.2959 32.1153C26.4586 33.8216 24.0128 35.9409 21.9497 37.4022C20.3691 38.5218 19.378 39.1328 18.7699 39.4676C18.4782 39.6281 18.2692 39.7282 18.1212 39.7912C17.7576 39.9741 17.6335 40 17.6335 40C17.6335 40 17.6027 39.9851 17.5439 39.9556L17.5357 39.9571L17.2943 39.8401L17.2995 39.8293C17.2943 39.8401 17.2943 39.8401 17.2943 39.8401L17.2939 39.8398L17.2932 39.8395L17.2914 39.8385L17.2855 39.8356L17.2651 39.8257C17.2477 39.8171 17.2227 39.8045 17.1907 39.7883C17.1265 39.7556 17.0337 39.7078 16.9153 39.6451C16.6786 39.5194 16.3394 39.333 15.9219 39.0876C15.0877 38.5968 13.9381 37.8679 12.6695 36.9106C11.4046 35.9558 9.88502 34.6556 8.69092 33.6031C8.09183 33.0749 7.57079 32.6061 7.19944 32.2687C7.01369 32.1001 6.8653 31.9645 6.76316 31.8706C6.71209 31.8239 6.67255 31.7875 6.64571 31.7627L6.60455 31.7245C6.60455 31.7245 6.60436 31.7245 6.63682 31.6895L6.60455 31.7245L6.59326 31.7141L6.58259 31.7036L6.61592 31.6702C6.58257 31.7036 6.58259 31.7036 6.58259 31.7036L6.57993 31.7008L6.5735 31.6945L6.54966 31.6704C6.52899 31.6495 6.49888 31.619 6.46012 31.5792C6.38263 31.4998 6.27051 31.384 6.13022 31.2366C5.84973 30.9415 5.45598 30.5187 5.00029 30.0051C4.09143 28.9806 2.92536 27.5824 1.92027 26.1081C1.88187 26.0519 1.84425 25.9957 1.8074 25.9403ZM2.45744 25.5017C3.45703 26.9564 4.6265 28.3528 5.55373 29.3922C6.01839 29.9131 6.41948 30.3412 6.70373 30.6386C6.84583 30.7873 6.95857 30.9031 7.03533 30.9813C7.07373 31.0202 7.10308 31.05 7.1226 31.0696L7.14066 31.0876L7.17004 31.1145L7.23315 31.1723L7.29073 31.2248C7.39618 31.3213 7.55004 31.4611 7.74292 31.6352C8.12878 31.9838 8.67035 32.4686 9.29284 33.014C10.5419 34.1089 12.1014 35.4344 13.38 36.3941C14.6549 37.3512 15.8101 38.0796 16.6448 38.5675C17.0618 38.8114 17.398 38.9948 17.6282 39.1164L17.654 39.13C17.6758 39.1237 17.7196 39.1091 17.792 39.079C17.8654 39.0419 17.9512 38.9967 18.0506 38.9423C18.6185 38.6313 19.6065 38.0294 21.2388 36.8795C23.3225 35.412 25.8332 33.2516 27.7441 31.487C29.3104 30.0406 30.4008 28.6965 31.4504 27.4023C31.6545 27.1509 31.857 26.9013 32.0612 26.653C32.2872 26.3783 32.4804 26.1201 32.6484 25.8757C33.0601 25.2468 33.3311 24.6934 33.5506 24.2453C33.6779 23.9855 33.7879 23.761 33.8979 23.5778C34.2895 22.9251 34.5505 20.967 34.5505 20.967V0.863687H0.871048V20.967C0.871048 20.967 0.619923 22.7248 2.45744 25.5017Z" fill="#176DFF"/>
</g>
</g>
</svg>
