<svg width="132" height="44" viewBox="0 0 132 44" fill="none" xmlns="http://www.w3.org/2000/svg">
<path d="M0.853136 22.9635V2.83936H34.5676V22.9635C34.5676 22.9635 34.3063 24.9236 33.9143 25.577C33.5222 26.2304 33.1302 27.4065 31.9541 28.844C30.778 30.2815 29.6019 31.8496 27.7725 33.5484C25.943 35.2472 23.5239 37.3416 21.5 38.7754C18.3638 40.9969 17.6362 41.1501 17.6362 41.1501C17.6362 41.1501 15.6195 40.171 13.1367 38.2971C10.6539 36.4232 7.1256 33.1563 7.1256 33.1563C7.1256 33.1563 4.51208 30.5428 2.55193 27.6678C0.591784 24.793 0.853136 22.9635 0.853136 22.9635Z" fill="#3FA9F5"/>
<path d="M0.853136 22.9636V22.7588H34.5676V22.9636C34.5676 22.9636 34.3063 24.9238 33.9143 25.5771C33.5222 26.2305 33.1302 27.4066 31.9541 28.8441C30.778 30.2816 29.6019 31.8497 27.7725 33.5485C25.943 35.2473 23.5239 37.3418 21.5 38.7755C18.3638 40.997 17.6362 41.1502 17.6362 41.1502C17.6362 41.1502 15.6195 40.1712 13.1367 38.2973C10.6539 36.4234 7.1256 33.1565 7.1256 33.1565C7.1256 33.1565 4.51208 30.5429 2.55193 27.668C0.591784 24.7931 0.853136 22.9636 0.853136 22.9636Z" fill="white"/>
<path d="M8.70841 34.2347L8.54883 34.443L9.12417 34.9445L9.89879 35.6306L11.0779 36.6407L11.2542 36.4755L11.4328 36.3347L11.6865 36.2171L12.0108 36.1091H12.523L12.7062 36.175L12.9412 36.2735L13.209 36.4755L14.4276 37.6448L15.0234 38.0619L15.5661 38.3601L16.1373 38.5601L16.6261 38.6902L17.0799 38.7475H18.0479L18.7302 38.6427L19.1904 38.5094L19.8188 38.2681L20.4725 37.9096L21.3262 37.3098L22.0181 36.7353L22.4687 36.4118L22.9321 36.1927L23.259 36.1227L23.6969 36.1005L23.9413 36.1483L24.2999 36.307L24.484 36.4497L24.8014 36.1831L25.7693 35.3517L26.1852 34.9835L26.6104 34.6121L27.0427 34.2201L26.7596 33.9584L26.4094 33.6702L25.6883 33.1963L24.9466 32.877L24.3492 32.7533L23.5971 32.6914L22.7833 32.7533L22.3095 32.877L21.6708 33.0314L21.1454 33.2787L20.7024 33.5259L20.0534 33.9584L19.4023 34.4926L18.6833 35.0378L18.1806 35.2587L17.8189 35.4118H17.2673L17.0417 35.3115L16.603 35.0232L16.1267 34.5593L15.337 33.8066L14.4971 33.2308L13.6128 32.9026L12.8598 32.7518L12.2709 32.7202L11.4708 32.7897L10.8376 32.9149L10.2045 33.1514L9.68968 33.4506L9.19607 33.8066L8.70841 34.2347Z" fill="#0D0D86"/>
<path d="M2.3448 26.6299H1.92017L2.07558 26.9152L2.39067 27.4054L3.00435 28.3038L4.32447 30.0363L5.48208 31.3856L6.09931 32.0725L6.58574 32.5858L7.39638 32.5549L7.88688 32.4206L8.62523 32.1057L9.07959 31.8166L9.63724 31.3674L10.2775 30.7683L10.8609 30.2522L11.4134 29.9785H11.842L12.0743 30.0352L12.3376 30.1437L12.7817 30.4741L13.1483 30.8407L13.8298 31.4706L14.248 31.8268L14.8701 32.1802L15.467 32.4188L16.5206 32.6388L17.4822 32.6072L18.2503 32.4818L19.0231 32.2303L19.9466 31.7466L20.5121 31.3697L21.1089 30.8731L21.5361 30.5339L21.9634 30.2765L22.3906 30.069L22.7173 29.9937H23.2074L23.5718 30.069L23.7037 30.157L24.0869 30.4774L24.4765 30.8731L25.243 31.577L25.8273 31.9726L26.4932 32.3119L27.2222 32.5131L27.9696 32.6135H28.7299L29.019 32.3119L29.9488 31.2879L30.665 30.4398L31.7833 29.0638L32.4367 28.2094L32.8263 27.5874L33.1593 27.0475L33.376 26.6149H32.8645L32.3826 26.6916L31.8405 26.8175L31.2436 27.0475L30.7015 27.3213L30.1595 27.7211L29.694 28.1702L29.2667 28.6409L28.9 29.0518L28.5932 29.2269H28.0237L27.6787 29.1393L27.1367 28.7287L26.5946 28.1647L25.691 27.4089L24.9518 26.9873L24.2837 26.7464L23.5977 26.6205H22.3331L21.9284 26.6879L21.6012 26.7629L21.1091 26.8952L20.6745 27.1076L20.0725 27.4473L19.2882 27.9792L18.881 28.314L18.4364 28.6812L17.9418 28.9809L17.4822 29.1809L17.215 29.2483H16.7778L16.5206 29.1809L16.2558 29.0659L15.8586 28.7387L15.3041 28.1741L14.6996 27.6246L14.3849 27.3848L13.8754 27.0876L13.4108 26.8903L13.0136 26.7579L12.5165 26.628L11.7072 26.583L11.0471 26.6212L10.6485 26.6935L10.3626 26.7512L9.95536 26.8927L9.35171 27.1642L8.93867 27.4328L8.56031 27.7014L8.28304 27.9643L7.535 28.7094L7.00354 29.1283L6.63673 29.2381H5.96665L5.66628 28.9376L5.24749 28.3657L4.83157 27.8978L4.51387 27.5772L4.18459 27.3144L3.69936 27.0343L3.0004 26.757L2.3448 26.6299Z" fill="#0D0D86"/>
<path d="M18.0707 8.94552H17.6316V9.39063L17.8184 9.53866L18.042 9.6081H18.2942L18.4048 9.44658L18.6157 9.2518L18.7913 9.15481L19.1128 8.97327L19.3365 8.86894L19.5274 8.72705L19.702 8.60555L20.1737 8.05119L20.4309 7.75717L20.8178 7.31308L21.2711 6.78426L21.4916 6.55762L21.3167 6.5705L21.1675 6.63903L20.8893 6.76806L20.6998 6.90921L20.224 7.48179L19.5465 8.24389L19.1836 8.5947L18.8973 8.72373L18.0707 8.94552Z" fill="#453629"/>
<path d="M19.5789 8.38453L19.5044 8.28639L19.6109 8.17116L19.85 7.90824L20.1351 7.58453L20.3699 7.30501L20.6986 6.90888L20.8926 6.76597L21.3183 6.56996L21.499 6.55566L21.253 6.78231L21.0365 7.05182L20.5892 7.56793L20.3251 7.86562L20.0673 8.17116L19.9449 8.23619L19.7438 8.36467L19.5789 8.38453Z" fill="#5B4C3C"/>
<path d="M12.7866 6.9809L13.4654 7.29847L14.8915 8.52254L13.6761 8.06196L13.2577 7.90078L12.5115 7.56852L12.0367 7.3452L11.6918 7.22265L11.4276 7.15185L11.1628 7.09671L10.961 7.05345L11.22 6.92871L11.2047 6.8854L11.131 6.82427L10.959 6.80276L11.0858 6.68408L11.5608 6.69725L12.0367 6.75812L12.5347 6.8854L12.7866 6.9809Z" fill="#38312D"/>
<path d="M11.0783 6.6483L11.3083 6.69043H11.09L10.9721 6.80255L10.4663 6.77122L10.1955 6.75778L10.1776 6.69043L10.2089 6.58992L10.276 6.46682L9.5144 5.78027L11.0783 6.6483Z" fill="#303848"/>
<path d="M13.4583 7.70557V7.97596L14.8864 8.51952L14.3143 8.03181L14.0511 7.84596L13.7674 7.70557H13.4583Z" fill="#5B473E"/>
<path d="M18.2049 15.3176L18.3228 15.2589L18.233 14.8403L18.1422 14.8575L18.0759 14.898L18.0041 14.9568L17.9757 15.0823L17.9144 15.266L17.7843 15.531L17.711 15.6776L17.6472 15.8064L17.5591 15.9978H17.5287L17.4868 15.8448L17.4574 15.7882L17.3768 15.8291L17.3212 15.8722L17.2584 15.9516L17.1615 16.1135L17.1077 16.2184L17.148 16.3459H17.2223L17.2768 16.2564L17.4489 16.2838L17.5591 16.245L17.6979 16.2054L17.7843 16.1135L17.8671 15.9516L18.0434 15.5511L18.2049 15.3176Z" fill="#46362B"/>
<path d="M17.0405 16.088L17.1436 16.1564L17.2599 15.9541L17.3208 15.8771L17.3755 15.8411L17.4587 15.8013L17.4872 15.861L17.5282 16.0051H17.5581L17.7233 15.6535L17.922 15.2647L17.9798 15.0752L17.8037 15.0865L17.6457 15.1518L17.5177 15.2199L17.3788 15.2766H17.1753L17.098 15.3483L17.0405 15.3851L17.0271 16.0157L17.0405 16.088Z" fill="#B88137"/>
<path d="M16.0976 15.013L16.0186 15.0792L16.0725 15.1048L16.2572 15.1191L16.4135 15.0987L16.5074 15.0037L16.528 14.8677L16.2834 14.9633L16.0976 15.013Z" fill="white"/>
<path d="M14.437 10.295L14.3826 10.4829L14.5904 10.4702L14.6033 10.403L14.652 10.3361L14.79 10.2312L14.9151 10.1338H14.9794L15.0659 10.1522L15.0807 10.189V10.4702L15.2173 10.5373L15.2813 10.5482H15.3602L15.51 10.4428H16.85L17.045 10.601L17.3056 10.18V9.87771L16.9201 9.35773L16.7085 9.10832L16.5135 9.01611L16.2973 9.04031L16.0812 9.13252L15.7105 9.25157L15.4968 9.38201L15.3248 9.43438L14.9408 9.67404L14.742 9.86195L14.614 10.0281L14.437 10.295Z" fill="white"/>
<path d="M15.1064 10.842L14.8733 10.8803L14.9876 10.7822L15.1928 10.6363L15.2806 10.5474H15.3592L15.5093 10.4443H16.8528L17.0427 10.5985L16.9733 10.7077L16.5047 10.7128L16.4475 10.8057L16.1622 10.7316H15.8146L15.5883 10.7648L15.4173 10.8144L15.1064 10.842Z" fill="#707267"/>
<path d="M14.6026 10.4014L14.5903 10.4719H15.0834V10.1881L15.0681 10.1483L14.9803 10.1299H14.916L14.7741 10.236L14.6536 10.33L14.6026 10.4014Z" fill="#0F0C0D"/>
<path d="M14.2678 10.6084L14.3842 10.4808L14.5894 10.4696H14.8054L15.0533 10.458L15.0886 10.4635L15.2264 10.539L15.2836 10.5472L15.1888 10.6404L15.148 10.6705L15.0771 10.7199L14.9858 10.7855L14.8742 10.879L14.7599 10.9066L14.6037 10.9454L14.471 11.0791L14.4015 11.1465L14.3536 11.2149L14.3423 11.3221L14.2014 11.2914L14.128 11.2149L14.0657 11.1311V10.878L14.132 10.7422L14.2678 10.6084Z" fill="#CCA44B"/>
<path d="M13.6685 8.05845L15.4909 9.38902L15.6744 9.26198L16.0519 9.14555L16.3024 9.0362L16.5036 9.01503L16.7046 9.10321L16.8951 9.32902L17.3079 9.88295V10.1828L16.9727 10.7092H16.5036L16.4438 10.8019L17.2419 11.9487V12.7985L17.091 13.3162L16.9066 13.8512L16.6551 14.4748L16.5344 14.8269L16.5063 14.998L16.4104 15.0995L16.2561 15.1152L16.0678 15.0995L16.0047 15.0683L15.7588 15.1152L15.6026 15.135L15.5039 15.186L15.3159 15.4318L15.2139 15.5333L15.1948 15.6225L15.2139 15.7849L15.2936 15.9442H15.4147L15.523 15.871L15.6186 15.7526L15.7588 15.5842L15.8766 15.4632L15.9626 15.4058H16.0359L16.0678 15.4318L16.1092 15.5333L16.2138 15.8091L16.2751 16.0073L16.3789 16.0497L16.5063 16.0073L16.5629 15.9271V15.7526L16.5063 15.5667L16.4496 15.4318V15.2663L16.5959 15.1629L16.8225 15.0995L16.9618 14.998L17.2259 14.6886L17.312 14.3494L17.3407 13.8787L17.3808 13.6146L17.5129 13.3162L17.6522 12.9673L18.0204 13.0216L18.191 13.1766V13.5488L18.1251 13.7232V14.1652L18.2647 14.4172V14.6886L18.2329 14.8472L18.3237 15.2663L18.8685 15.5667H19.4343L19.7416 15.3292L20.0039 14.7915L20.6335 12.5622L20.981 12.5841L21.0902 11.9834L20.6335 11.7203L20.3555 11.2736V10.8863L21.264 11.0998L21.0105 10.5469L21.7602 10.7012L22.9731 11.0688L23.7949 11.1055L24.1048 10.9806L24.3694 10.7674L24.8031 10.2602L25.1926 10.003L25.4835 9.65524L26.0197 9.18862L26.5309 8.93545L27.2653 8.69221L27.8662 8.64751L27.2653 8.1809L27.896 8.31988L28.9236 8.56809L28.8839 8.31988L29.3457 8.43407L28.9236 8.13126L27.9754 7.76124L29.1669 7.93269L28.4273 7.57526L28.2237 7.45117L27.9456 7.36433L27.1992 7.31287L26.8391 7.27612L26.3394 7.18057L26.1849 7.36433H26.8391L27.1185 7.48193L27.2653 7.64363L26.7201 7.62813L26.3942 7.74459L25.8223 7.95164L25.3875 8.10131H24.8862L24.6136 7.95943L24.3738 7.63987L24.192 7.27541L24.1114 6.95994L23.9307 6.7772L23.802 6.64448L23.6887 6.57405L23.5397 6.58016L23.4293 6.61704L23.2947 6.67104H23.0997L22.9761 6.60978L22.8748 6.42921L22.7227 6.23246L22.5349 6.11621H22.2308L21.9804 6.23246L21.5064 6.54551L21.256 6.77801L20.9608 7.14471L20.2096 8.00328L19.6998 8.60251L19.3373 8.85903L19.1632 8.94237L18.8949 9.08546L18.6087 9.24646L18.4029 9.4432L18.2867 9.60419H18.0363L17.8127 9.53266L17.6338 9.38902V8.94237L13.4592 7.2976L14.8831 8.51807L13.6685 8.05845Z" fill="#0F0C0D"/>
<path d="M26.0623 6.48779L25.7578 6.65887L25.971 6.73657L26.223 6.75835H28.5214L28.8658 6.69076L28.9238 6.56845L28.6986 6.53787L27.6722 6.52851L26.0623 6.48779Z" fill="#0F0C0D"/>
<path d="M21.8814 12.3448L21.0895 11.9858L20.9783 12.5831L20.6281 12.5596L20.1575 14.2482L20.8738 14.3901L21.9903 14.6632H22.9693L23.4497 14.4508H24.5188L24.734 14.3228L24.7558 14.0696L24.8783 13.9988L24.95 13.9062L24.911 13.7428L24.6632 13.5303L24.8783 13.4513L24.95 13.3508L24.6114 13.0269L24.2581 12.8748L23.846 12.8159L23.1591 12.7718L22.7604 12.7238L21.8814 12.3448Z" fill="#6F726D"/>
<path d="M20.9458 12.748L20.97 12.5867L21.0932 11.9878L22.2482 12.5034V12.5585L22.1796 12.5867L22.1595 12.631H22.0264L21.6796 12.4577H21.5546L21.5869 12.631L21.7522 12.9173V13.0101L21.6514 13.1351L21.6232 13.248H21.107L20.8691 13.2238L20.72 13.1351L20.9458 12.748Z" fill="#5D6970" fill-opacity="0.8"/>
<path d="M27.4579 6.08252L22.8882 6.45516L22.9751 6.61672L23.0935 6.67697H23.2957L23.5397 6.58304H23.6897L23.798 6.64532L24.1052 6.96487L24.1859 7.27625L24.3717 7.6458L24.6119 7.96324L24.8845 8.10727H25.3885L26.728 7.64376L27.2732 7.65126L27.12 7.47736L26.8393 7.35894H26.1898L26.342 7.18232L26.9128 7.28952L27.4002 7.32867L27.9281 7.36547L28.0091 7.388L28.5112 7.42441L28.8381 7.35693H29.1128L28.9218 7.27335L28.6769 7.16588L28.3188 7.08828L27.5664 6.97483L26.6072 6.83655L26.2562 6.80832L25.7684 6.65912L26.0947 6.48006L27.4579 6.08252Z" fill="#2E2B29"/>
<path d="M1.50511 19.5282L0.854924 19.6626L0.849854 23.0302L1.11051 23.0429L1.32249 23.1055L1.70308 23.2645L2.13185 23.5535L2.55098 23.9727L3.26881 24.8061L3.88063 25.4806L4.27086 25.813L4.73818 26.0924L5.2922 26.2707H6.10155L6.55923 26.1888L7.06989 26.0105L7.77808 25.5962L8.44774 25.0084L9.16074 24.3003L9.5076 23.9823L9.84002 23.7125L10.317 23.3801L10.8951 23.1007L11.5262 22.9754H12.3548L12.7739 23.1007L13.0389 23.197L13.5303 23.4909L13.9398 23.833L14.6769 24.7194L15.1683 25.2782L15.6308 25.707L15.9776 25.9142L16.5461 26.184L16.9556 26.2803H17.5337L18.0155 26.184L18.5213 26.0394L19.2584 25.5769L20.0052 24.9362L20.5592 24.387L21.2096 23.7992L21.6817 23.462L22.0527 23.25L22.5537 23.0462L23.0933 22.9708H23.7569L24.1782 23.0462L24.6561 23.2246L24.9985 23.4528L25.3694 23.7667L26.1755 24.6868L26.7248 25.3217L27.3382 25.8495L27.8089 26.1063L28.3938 26.2847H29.0715L29.6065 26.2133L30.2842 25.9494L30.9833 25.4429L31.5183 24.9436L32.3813 24.1305L32.8734 23.7239L33.33 23.41L34.0004 23.089L34.5615 22.9321V13.9639L32.9986 15.1174L32.0779 15.7499L30.7196 16.7081L29.7335 17.4058L27.7428 18.7918L26.3289 19.7686L25.4172 20.3733L25.1382 20.4931L24.8302 20.2889L22.6092 19.1843L21.6301 18.8142L20.3644 18.438H19.7136L19.427 18.5037L18.8001 18.7425L17.9941 19.1963L17.0361 19.8714L16.3082 20.4477L16.1134 20.702L15.1845 19.9639L14.1706 19.1639L13.3148 18.4662L12.4683 17.8244L11.5287 17.1453L10.2822 16.3639L9.43565 15.9825L8.97983 15.8244L8.30076 15.6755H7.70539L7.20308 15.8244L6.79377 16.029L6.28212 16.3639L5.66818 16.8384L5.0356 17.3965L4.32862 17.9826L3.31465 18.7268L2.16087 19.3217L1.50511 19.5282Z" fill="#57744B"/>
<path fill-rule="evenodd" clip-rule="evenodd" d="M0.541795 19.4068L0.535889 23.3287L1.05785 23.354L1.21742 23.4012L1.55364 23.5416L1.93157 23.7964L2.32107 24.1859L3.03391 25.0136L3.66202 25.706L4.08755 26.0685L4.60811 26.3797L5.24309 26.584H6.1295L6.63914 26.4928L7.20209 26.2963L7.96249 25.8515L8.662 25.2375L9.37738 24.5269L9.71269 24.2196L10.0289 23.963L10.476 23.6514L10.9956 23.4002L11.5571 23.2888H12.3091L12.6755 23.3983L12.9037 23.4813L13.3483 23.7471L13.717 24.0551L14.4386 24.923L14.9435 25.4971L15.4418 25.9591L15.8298 26.1908L16.4419 26.4813L16.9193 26.5936H17.5649L18.0896 26.4887L18.6504 26.3285L19.445 25.8299L20.2181 25.1666L20.7749 24.6145L21.4066 24.0437L21.8512 23.7262L22.1903 23.5324L22.6358 23.3511L23.1152 23.2841H23.7291L24.0952 23.3497L24.5126 23.5054L24.8097 23.7036L25.1491 23.9907L25.9384 24.8918L25.9397 24.8932L26.5028 25.5441L27.1591 26.1087L27.687 26.3967L28.3472 26.598H29.0926L29.6853 26.5189L30.4356 26.2268L31.1831 25.6852L31.7322 25.1726L32.5889 24.3655L33.0628 23.9742L33.4877 23.6821L34.1113 23.3834L34.8752 23.1698V13.3423L32.8168 14.8616L31.8987 15.4923L29.5544 17.1481L29.5525 17.1495L27.5647 18.5335L27.5636 18.5342L26.1531 19.5086L25.2676 20.096L25.1703 20.1377L24.9873 20.0164L22.7349 18.8963L21.7304 18.5165L20.4101 18.1241H19.6782L19.3358 18.2026L18.6668 18.4575L17.8266 18.9305L16.8484 19.6198L16.0831 20.2257L16.0586 20.2576L15.3798 19.7181L14.3669 18.919L13.5088 18.2194L12.655 17.572L11.7041 16.8848L10.4307 16.0865L9.5518 15.6905L9.06522 15.5217L8.33484 15.3617H7.66003L7.08762 15.5312L6.63733 15.7564L6.1002 16.108L5.46843 16.5962L4.83183 17.1579L4.13569 17.7349L3.14909 18.459L2.04113 19.0304L1.42618 19.224L0.541795 19.4068ZM1.3226 23.1052L1.11062 23.0426L0.849964 23.03L0.855034 19.6623L1.50522 19.528L2.16098 19.3214L3.31476 18.7265L4.32873 17.9823L5.03571 17.3962L5.66829 16.8381L6.28223 16.3637L6.79388 16.0288L7.20319 15.8241L7.70551 15.6752H8.30087L8.97994 15.8241L9.43576 15.9822L10.2823 16.3637L11.5288 17.145L12.4684 17.8241L13.3149 18.466L14.1707 19.1637L15.1847 19.9637L16.1114 20.7001L16.1106 20.7011L16.7942 21.2635L17.6718 21.8964L18.5256 22.3979H18.8599L19.4391 22.2964L21.1167 21.9322L22.5078 21.5381L23.5705 21.1859L24.3944 20.8754L25.138 20.4926L25.1383 20.4928L25.4173 20.373L26.329 19.7683L27.7429 18.7916L29.7337 17.4055L30.7197 16.7078L32.078 15.7497L32.9987 15.1171L34.5616 13.9636V22.9318L34.0005 23.0887L33.3301 23.4097L32.8735 23.7236L32.3814 24.1302L31.5184 24.9434L30.9834 25.4427L30.2843 25.9491L29.6066 26.2131L29.0716 26.2844H28.394L27.809 26.1061L27.3384 25.8493L26.725 25.3214L26.1756 24.6866L25.3696 23.7664L24.9986 23.4525L24.6563 23.2243L24.1783 23.046L23.757 22.9705H23.0934L22.5538 23.046L22.0528 23.2498L21.6818 23.4617L21.2097 23.799L20.5593 24.3867L20.0053 24.9359L19.2585 25.5767L18.5214 26.0392L18.0156 26.1837L17.5338 26.28H16.9557L16.5463 26.1837L15.9778 25.9139L15.6309 25.7067L15.1684 25.278L14.677 24.7191L13.9399 23.8327L13.5304 23.4906L13.039 23.1968L12.774 23.1004L12.3549 22.9752H11.5263L10.8952 23.1004L10.3171 23.3798L9.84013 23.7123L9.50771 23.982L9.16085 24.3L8.44785 25.0082L7.77819 25.5959L7.07 26.0102L6.55934 26.1885L6.10166 26.2704H5.29231L4.73829 26.0921L4.27097 25.8127L3.88074 25.4803L3.26892 24.8058L2.55109 23.9724L2.13196 23.5533L1.70319 23.2642L1.3226 23.1052ZM24.8636 20.3107L24.8303 20.2886L22.6093 19.1841L21.6302 18.8139L20.3645 18.4378H19.7137L19.4271 18.5035L18.8003 18.7423L17.9942 19.196L17.0362 19.8711L16.3083 20.4474L16.2715 20.4954L16.7942 20.9282L17.6718 21.5611L18.5256 22.0626H18.8599L19.4391 21.9611L21.1167 21.5969L22.5078 21.2029L23.5705 20.8506L24.3944 20.5402L24.8636 20.3107Z" fill="#24420E"/>
<path fill-rule="evenodd" clip-rule="evenodd" d="M1.8074 27.9403C1.80353 27.9345 1.79967 27.929 1.79581 27.9233C-0.262245 24.9216 0.0121621 23.0115 0.0121621 23.0115V2H35.4107V23.0115C35.4107 23.0115 35.1362 25.0581 34.7246 25.7403C34.6091 25.9318 34.4936 26.1664 34.3598 26.4379C34.1076 26.9497 33.7905 27.5929 33.2872 28.3271C33.0736 28.6527 32.8285 28.9933 32.5465 29.3377C32.362 29.5633 32.1759 29.7941 31.9859 30.0301C30.9854 31.271 29.8736 32.6504 28.2959 34.1153C26.4586 35.8216 24.0128 37.9409 21.9497 39.4022C20.3691 40.5218 19.378 41.1328 18.7699 41.4676C18.4782 41.6281 18.2692 41.7282 18.1212 41.7912C17.7576 41.9741 17.6335 42 17.6335 42C17.6335 42 17.6027 41.9851 17.5439 41.9556L17.5357 41.9571L17.2943 41.8401L17.2995 41.8293C17.2943 41.8401 17.2943 41.8401 17.2943 41.8401L17.2939 41.8398L17.2932 41.8395L17.2914 41.8385L17.2855 41.8356L17.2651 41.8257C17.2477 41.8171 17.2227 41.8045 17.1907 41.7883C17.1265 41.7556 17.0337 41.7078 16.9153 41.6451C16.6786 41.5194 16.3394 41.333 15.9219 41.0876C15.0877 40.5968 13.9381 39.8679 12.6695 38.9106C11.4046 37.9558 9.88502 36.6556 8.69092 35.6031C8.09183 35.0749 7.57079 34.6061 7.19944 34.2687C7.01369 34.1001 6.8653 33.9645 6.76316 33.8706C6.71209 33.8239 6.67255 33.7875 6.64571 33.7627L6.60455 33.7245C6.60455 33.7245 6.60436 33.7245 6.63682 33.6895L6.60455 33.7245L6.59326 33.7141L6.58259 33.7036L6.61592 33.6702C6.58257 33.7036 6.58259 33.7036 6.58259 33.7036L6.57993 33.7008L6.5735 33.6945L6.54966 33.6704C6.52899 33.6495 6.49888 33.619 6.46012 33.5792C6.38263 33.4998 6.27051 33.384 6.13022 33.2366C5.84973 32.9415 5.45598 32.5187 5.00029 32.0051C4.09143 30.9806 2.92536 29.5824 1.92027 28.1081C1.88187 28.0519 1.84425 27.9957 1.8074 27.9403ZM2.45744 27.5017C3.45703 28.9564 4.6265 30.3528 5.55373 31.3922C6.01839 31.9131 6.41948 32.3412 6.70373 32.6386C6.84583 32.7873 6.95857 32.9031 7.03533 32.9813C7.07373 33.0202 7.10308 33.05 7.1226 33.0696L7.14066 33.0876L7.17004 33.1145L7.23315 33.1723L7.29073 33.2248C7.39618 33.3213 7.55004 33.4611 7.74292 33.6352C8.12878 33.9838 8.67035 34.4686 9.29284 35.014C10.5419 36.1089 12.1014 37.4344 13.38 38.3941C14.6549 39.3512 15.8101 40.0796 16.6448 40.5675C17.0618 40.8114 17.398 40.9948 17.6282 41.1164L17.654 41.13C17.6758 41.1237 17.7196 41.1091 17.792 41.079C17.8654 41.0419 17.9512 40.9967 18.0506 40.9423C18.6185 40.6313 19.6065 40.0294 21.2388 38.8795C23.3225 37.412 25.8332 35.2516 27.7441 33.487C29.3104 32.0406 30.4008 30.6965 31.4504 29.4023C31.6545 29.1509 31.857 28.9013 32.0612 28.653C32.2872 28.3783 32.4804 28.1201 32.6484 27.8757C33.0601 27.2468 33.3311 26.6934 33.5506 26.2453C33.6779 25.9855 33.7879 25.761 33.8979 25.5778C34.2895 24.9251 34.5505 22.967 34.5505 22.967V2.86369H0.871048V22.967C0.871048 22.967 0.619923 24.7248 2.45744 27.5017Z" fill="#176DFF"/>
<path d="M56.6841 6H60.0669V16.3906C60.0669 17.5573 59.7882 18.5781 59.231 19.4531C58.6789 20.3281 57.9054 21.0104 56.9106 21.5C55.9159 21.9844 54.757 22.2266 53.4341 22.2266C52.106 22.2266 50.9445 21.9844 49.9497 21.5C48.9549 21.0104 48.1815 20.3281 47.6294 19.4531C47.0773 18.5781 46.8013 17.5573 46.8013 16.3906V6H50.1841V16.1016C50.1841 16.7109 50.3169 17.2526 50.5825 17.7266C50.8534 18.2005 51.2336 18.5729 51.7231 18.8438C52.2127 19.1146 52.783 19.25 53.4341 19.25C54.0903 19.25 54.6606 19.1146 55.145 18.8438C55.6346 18.5729 56.0122 18.2005 56.2778 17.7266C56.5487 17.2526 56.6841 16.7109 56.6841 16.1016V6ZM65.0501 22V6H68.4329V12.6016H75.3001V6H78.6751V22H75.3001V15.3906H68.4329V22H65.0501ZM83.6642 22V6H94.4454V8.78906H87.047V12.6016H93.8907V15.3906H87.047V19.2109H94.4767V22H83.6642ZM99.3349 22V6H105.647C106.856 6 107.887 6.21615 108.741 6.64844C109.6 7.07552 110.254 7.68229 110.702 8.46875C111.155 9.25 111.382 10.1693 111.382 11.2266C111.382 12.2891 111.153 13.2031 110.694 13.9687C110.236 14.7292 109.572 15.3125 108.702 15.7187C107.837 16.125 106.791 16.3281 105.561 16.3281H101.335V13.6094H105.015C105.66 13.6094 106.197 13.5208 106.624 13.3438C107.051 13.1667 107.369 12.901 107.577 12.5469C107.791 12.1927 107.897 11.7526 107.897 11.2266C107.897 10.6953 107.791 10.2474 107.577 9.88281C107.369 9.51823 107.048 9.24219 106.616 9.05469C106.189 8.86198 105.65 8.76562 104.999 8.76562H102.718V22H99.3349ZM107.975 14.7188L111.952 22H108.218L104.327 14.7188H107.975ZM115.972 22V6H126.754V8.78906H119.355V12.6016H126.199V15.3906H119.355V19.2109H126.785V22H115.972Z" fill="#171717"/>
<path d="M47.4106 28L127.411 28" stroke="#176DFF"/>
<path d="M50.1763 34.6378C50.1384 34.3016 49.9821 34.0412 49.7075 33.8565C49.4329 33.6695 49.0873 33.576 48.6706 33.576C48.3723 33.576 48.1142 33.6233 47.8964 33.718C47.6786 33.8104 47.5094 33.9382 47.3886 34.1016C47.2703 34.2625 47.2111 34.446 47.2111 34.652C47.2111 34.8248 47.2513 34.974 47.3318 35.0994C47.4147 35.2249 47.5224 35.3303 47.655 35.4155C47.7899 35.4983 47.9343 35.5682 48.0882 35.625C48.2421 35.6795 48.39 35.7244 48.5321 35.7599L49.2423 35.9446C49.4743 36.0014 49.7123 36.0784 49.9561 36.1754C50.1999 36.2725 50.426 36.4003 50.6344 36.5589C50.8427 36.7176 51.0108 36.9141 51.1386 37.1484C51.2688 37.3828 51.3339 37.6634 51.3339 37.9901C51.3339 38.402 51.2274 38.7678 51.0143 39.0874C50.8036 39.407 50.4971 39.6591 50.0946 39.8438C49.6945 40.0284 49.2104 40.1207 48.6422 40.1207C48.0977 40.1207 47.6266 40.0343 47.2288 39.8615C46.8311 39.6887 46.5198 39.4437 46.2949 39.1264C46.07 38.8068 45.9457 38.428 45.922 37.9901H47.0229C47.0442 38.2528 47.1294 38.4718 47.2785 38.647C47.4301 38.8198 47.623 38.9489 47.8574 39.0341C48.0941 39.117 48.3534 39.1584 48.6351 39.1584C48.9452 39.1584 49.221 39.1098 49.4625 39.0128C49.7063 38.9134 49.8981 38.776 50.0378 38.6009C50.1775 38.4233 50.2473 38.2161 50.2473 37.9794C50.2473 37.764 50.1857 37.5876 50.0626 37.4503C49.9419 37.313 49.7774 37.1993 49.569 37.1094C49.3631 37.0194 49.1299 36.9401 48.8695 36.8714L48.0101 36.6371C47.4277 36.4785 46.966 36.2453 46.6251 35.9375C46.2866 35.6297 46.1173 35.2225 46.1173 34.7159C46.1173 34.2969 46.231 33.9311 46.4582 33.6186C46.6855 33.3061 46.9933 33.0634 47.3815 32.8906C47.7698 32.7154 48.2078 32.6278 48.6954 32.6278C49.1879 32.6278 49.6223 32.7143 49.9987 32.8871C50.3775 33.0599 50.6758 33.2978 50.8936 33.6009C51.1114 33.9015 51.225 34.2472 51.2345 34.6378H50.1763ZM52.8865 33.6719V32.7273H58.5151V33.6719H56.2459V40H55.1522V33.6719H52.8865ZM65.0357 32.7273H66.1366V37.5107C66.1366 38.0196 66.017 38.4706 65.7779 38.8636C65.5388 39.2543 65.2026 39.562 64.7694 39.7869C64.3361 40.0095 63.8283 40.1207 63.2459 40.1207C62.6659 40.1207 62.1593 40.0095 61.7261 39.7869C61.2928 39.562 60.9566 39.2543 60.7175 38.8636C60.4784 38.4706 60.3589 38.0196 60.3589 37.5107V32.7273H61.4562V37.4219C61.4562 37.7509 61.5284 38.0433 61.6728 38.299C61.8196 38.5547 62.0267 38.7559 62.2942 38.9027C62.5618 39.0471 62.879 39.1193 63.2459 39.1193C63.6153 39.1193 63.9337 39.0471 64.2012 38.9027C64.4711 38.7559 64.6771 38.5547 64.8191 38.299C64.9635 38.0433 65.0357 37.7509 65.0357 37.4219V32.7273ZM70.6863 40H68.3319V32.7273H70.7609C71.4735 32.7273 72.0855 32.8729 72.5968 33.1641C73.1082 33.4529 73.5 33.8684 73.7723 34.4105C74.0469 34.9503 74.1842 35.5978 74.1842 36.353C74.1842 37.1106 74.0457 37.7616 73.7687 38.3061C73.4941 38.8506 73.0964 39.2696 72.5755 39.5632C72.0547 39.8544 71.425 40 70.6863 40ZM69.4292 39.0412H70.6259C71.1799 39.0412 71.6404 38.937 72.0073 38.7287C72.3743 38.518 72.6489 38.2138 72.8312 37.8161C73.0135 37.416 73.1046 36.9283 73.1046 36.353C73.1046 35.7824 73.0135 35.2983 72.8312 34.9006C72.6513 34.5028 72.3826 34.201 72.0251 33.995C71.6676 33.7891 71.2237 33.6861 70.6934 33.6861H69.4292V39.0412ZM75.2165 32.7273H76.463L78.3628 36.0334H78.441L80.3408 32.7273H81.5873L78.9488 37.1449V40H77.855V37.1449L75.2165 32.7273ZM92.5103 35.0923H91.4023C91.3597 34.8556 91.2804 34.6473 91.1644 34.4673C91.0484 34.2874 90.9064 34.1347 90.7383 34.0092C90.5702 33.8838 90.382 33.7891 90.1736 33.7251C89.9677 33.6612 89.7487 33.6293 89.5167 33.6293C89.0976 33.6293 88.7224 33.7346 88.391 33.9453C88.0619 34.156 87.8015 34.465 87.6097 34.8722C87.4203 35.2794 87.3256 35.7765 87.3256 36.3636C87.3256 36.9555 87.4203 37.455 87.6097 37.8622C87.8015 38.2694 88.0631 38.5772 88.3945 38.7855C88.726 38.9938 89.0988 39.098 89.5131 39.098C89.7428 39.098 89.9606 39.0672 90.1665 39.0057C90.3749 38.9418 90.5631 38.8482 90.7312 38.7251C90.8993 38.602 91.0413 38.4517 91.1573 38.2741C91.2757 38.0942 91.3574 37.8883 91.4023 37.6562L92.5103 37.6598C92.4511 38.0173 92.3363 38.3464 92.1658 38.647C91.9977 38.9453 91.7811 39.2034 91.516 39.4212C91.2532 39.6366 90.9525 39.8035 90.614 39.9219C90.2754 40.0402 89.9061 40.0994 89.506 40.0994C88.8763 40.0994 88.3152 39.9503 87.8228 39.652C87.3304 39.3513 86.9421 38.9216 86.658 38.3629C86.3763 37.8042 86.2354 37.1378 86.2354 36.3636C86.2354 35.5871 86.3775 34.9207 86.6616 34.3643C86.9457 33.8056 87.3339 33.3771 87.8263 33.0788C88.3188 32.7782 88.8787 32.6278 89.506 32.6278C89.8919 32.6278 90.2518 32.6835 90.5856 32.7947C90.9217 32.9036 91.2236 33.0646 91.4911 33.2777C91.7586 33.4884 91.98 33.7464 92.1552 34.0518C92.3304 34.3549 92.4487 34.7017 92.5103 35.0923ZM94.4233 40V32.7273H98.983V33.6719H95.5206V35.8878H98.7451V36.8288H95.5206V39.0554H99.0256V40H94.4233ZM106.919 32.7273V40H105.91L102.213 34.6662H102.146V40H101.049V32.7273H102.064L105.765 38.0682H105.832V32.7273H106.919ZM108.761 33.6719V32.7273H114.389V33.6719H112.12V40H111.026V33.6719H108.761ZM116.233 40V32.7273H118.825C119.389 32.7273 119.856 32.8243 120.228 33.0185C120.602 33.2126 120.882 33.4813 121.066 33.8246C121.251 34.1655 121.343 34.5597 121.343 35.0071C121.343 35.4522 121.25 35.844 121.063 36.1825C120.878 36.5187 120.599 36.7803 120.225 36.9673C119.853 37.1544 119.385 37.2479 118.822 37.2479H116.858V36.3033H118.722C119.078 36.3033 119.366 36.2524 119.589 36.1506C119.814 36.0488 119.978 35.9008 120.083 35.7067C120.187 35.5125 120.239 35.2794 120.239 35.0071C120.239 34.7325 120.186 34.4946 120.079 34.2933C119.975 34.0921 119.81 33.9382 119.585 33.8317C119.363 33.7228 119.07 33.6683 118.708 33.6683H117.33V40H116.233ZM119.823 36.7188L121.62 40H120.37L118.609 36.7188H119.823ZM123.278 40V32.7273H127.838V33.6719H124.376V35.8878H127.6V36.8288H124.376V39.0554H127.881V40H123.278Z" fill="#171717"/>
</svg>
