<svg width="17" height="15" viewBox="0 0 17 15" fill="none" xmlns="http://www.w3.org/2000/svg">
<g id="Icon">
<path fill-rule="evenodd" clip-rule="evenodd" d="M0.199951 1.2C0.199951 0.537258 0.737209 0 1.39995 0H15.8C16.4627 0 17 0.537258 17 1.2C17 1.86274 16.4627 2.4 15.8 2.4H1.39995C0.737209 2.4 0.199951 1.86274 0.199951 1.2Z" fill="#171717"/>
<path fill-rule="evenodd" clip-rule="evenodd" d="M0.199951 7.2C0.199951 6.53726 0.737209 6 1.39995 6H15.8C16.4627 6 17 6.53726 17 7.2C17 7.86274 16.4627 8.4 15.8 8.4H1.39995C0.737209 8.4 0.199951 7.86274 0.199951 7.2Z" fill="#171717"/>
<path fill-rule="evenodd" clip-rule="evenodd" d="M0.199951 13.2C0.199951 12.5373 0.737209 12 1.39995 12H15.8C16.4627 12 17 12.5373 17 13.2C17 13.8627 16.4627 14.4 15.8 14.4H1.39995C0.737209 14.4 0.199951 13.8627 0.199951 13.2Z" fill="#171717"/>
</g>
</svg>
